<svg width="535" height="417" viewBox="0 0 535 417" fill="none" xmlns="http://www.w3.org/2000/svg">
<path d="M77.736 25.864C75.144 15.208 73.416 12.184 66.504 11.032L66.936 7.57599H98.328L97.896 11.032C89.256 12.472 89.256 15.208 90.696 21.112L103.8 74.68C104.376 77.128 106.248 77.128 107.4 74.68L123.24 42.424C126.552 35.512 126.696 29.752 125.4 24.856C122.664 15.064 121.224 12.184 114.456 11.032L114.888 7.57599H146.424L145.992 11.032C137.352 12.472 137.208 15.208 138.648 21.112L151.752 74.68C152.328 77.128 154.2 77.128 155.352 74.68L180.984 21.832C184.152 15.352 181.56 12.184 173.64 11.032L173.928 7.57599H201L200.568 11.032C193.656 12.472 190.2 15.064 186.744 22.264L155.928 85.192C153.192 90.808 151.896 94.264 151.464 97H143.4L129.432 41.416L107.976 85.192C105.24 90.808 103.944 94.264 103.656 97H95.592L77.736 25.864ZM253.885 97.864C248.557 97.864 243.805 94.408 244.813 87.064L248.557 57.976C250.429 44.296 246.829 38.968 239.053 38.968C228.109 38.968 219.613 49.48 217.021 70.072L213.565 97H201.901L211.837 19.96C212.989 10.744 209.965 8.584 203.485 8.584L204.061 5.272C213.133 5.272 220.045 3.832 225.805 2.392L220.621 42.856C219.325 52.504 227.533 30.472 245.821 30.472C255.325 30.472 262.957 36.52 260.653 54.088L256.765 84.616C255.901 90.808 260.509 92.68 265.261 90.088L264.685 93.4C261.085 96.712 256.909 97.864 253.885 97.864ZM281.774 97.864C276.59 97.864 271.838 94.408 272.846 87.064L279.038 44.152C279.902 38.104 275.582 36.52 270.83 38.824L271.406 35.512C274.862 32.2 279.326 31.048 282.35 31.048C287.534 31.048 292.142 34.504 291.134 41.848L284.942 84.904C284.078 90.664 288.542 92.68 293.294 90.088L292.718 93.4C289.118 96.712 284.798 97.864 281.774 97.864ZM279.47 8.584C279.47 3.976 282.926 0.663996 287.39 0.663996C291.71 0.663996 295.31 3.976 295.31 8.584C295.31 13.192 291.71 16.504 287.39 16.504C282.926 16.504 279.47 13.192 279.47 8.584ZM310.641 97.864C304.305 97.864 300.849 93.112 301.569 87.064L310.353 19.96C311.505 10.744 308.481 8.584 302.001 8.584L302.577 5.272C311.649 5.272 318.705 3.832 324.465 2.392L313.809 84.904C313.089 90.664 317.409 92.68 322.161 90.088L321.585 93.4C317.985 96.712 313.665 97.864 310.641 97.864ZM353.909 97.864C338.357 97.864 326.549 86.488 326.549 69.064C326.549 51.928 338.069 30.472 360.677 30.472C373.925 30.472 380.837 37.672 380.837 47.176C380.837 57.256 373.205 64.456 352.181 68.056L344.693 69.352C340.949 69.928 340.085 73.096 341.957 77.704C344.981 85.048 350.885 90.088 359.525 90.088C364.997 90.088 371.333 88.072 375.509 83.464L377.669 86.056C373.781 90.952 366.005 97.864 353.909 97.864ZM339.077 60.856C339.077 65.176 341.669 66.328 345.125 65.752L349.445 65.032C367.157 62.152 369.029 53.944 369.029 47.464C369.029 39.112 365.429 34.36 358.229 34.36C347.141 34.36 339.077 45.736 339.077 60.856Z" fill="#2D2C2A"/>
<path d="M395.864 93.544C401.48 92.536 404.792 91.24 405.512 85.912L413.864 18.664C414.584 13.336 411.416 11.896 405.944 11.032L406.376 7.57599H437.624L437.192 11.032C431.432 11.896 428.12 13.336 427.4 18.664L419.192 85.912C418.472 91.24 421.64 92.536 427.112 93.544L426.68 97H395.432L395.864 93.544ZM490.374 97.864C485.19 97.864 480.438 94.408 481.446 87.064L485.19 57.832C487.062 44.296 483.462 38.968 475.686 38.968C463.878 38.968 455.958 50.92 453.654 70.072L450.198 97H438.534L445.158 44.44C445.878 38.104 441.558 36.52 436.806 38.824L437.382 35.512C440.838 32.2 444.87 31.048 448.038 31.048C453.078 31.048 457.254 34.072 457.254 42.424C457.254 52.504 463.446 30.472 482.166 30.472C491.958 30.472 499.59 36.52 497.286 54.088L493.398 84.616C492.534 90.808 496.998 92.68 501.75 90.088L501.174 93.4C497.718 96.712 493.398 97.864 490.374 97.864Z" fill="#2D2C2A"/>
<path d="M12.205 252.662C21.604 250.734 26.183 249.529 27.388 241.094L41.848 123.004C42.812 114.81 38.474 113.364 29.557 111.677L30.039 107.339H95.591C124.511 107.339 141.381 117.461 141.381 138.91C141.381 155.298 131.259 170.722 103.303 177.47C126.68 181.808 139.935 193.135 139.935 212.415C139.935 238.443 116.317 257 88.843 257C59.923 257 34.618 252.903 11.723 257L12.205 252.662ZM44.499 239.648C43.776 245.914 45.222 250.493 51.97 250.493H83.3C109.328 250.493 120.896 234.828 120.896 212.897C120.896 190.484 107.641 179.157 68.117 179.157C57.513 179.157 51.488 180.362 50.524 189.52L44.499 239.648ZM53.898 163.974C52.934 171.686 58.236 173.132 67.394 173.132H85.951C110.774 173.132 123.065 159.395 123.065 138.187C123.065 122.04 114.871 113.123 94.386 113.123H74.865C65.466 113.123 60.164 114.569 59.2 123.004L53.898 163.974ZM187.666 258.446C165.494 258.446 150.311 242.781 150.311 214.102C150.311 177.711 174.652 146.14 209.838 146.14C223.093 146.14 228.395 150.478 234.902 150.478C239.722 150.478 240.927 148.309 243.578 148.309C245.747 148.309 246.952 149.514 246.711 151.924L235.625 239.407C234.42 249.047 241.65 251.698 249.603 247.36L248.88 251.457C243.337 256.277 238.999 258.446 233.938 258.446C225.503 258.446 221.888 252.903 220.924 248.083C219.96 243.986 218.032 244.95 215.14 247.601C206.946 255.072 197.788 258.446 187.666 258.446ZM167.181 209.282C167.181 231.936 176.821 250.011 195.619 250.011C208.633 250.011 220.442 241.817 225.021 205.908L227.19 188.074C230.323 162.769 225.503 151.201 208.392 151.201C179.713 151.201 167.181 183.495 167.181 209.282ZM288.786 258.205C274.808 258.205 265.168 250.252 267.578 230.972L275.531 162.046C276.013 156.021 274.326 154.816 271.434 154.816H260.83L261.312 149.996C273.121 144.935 282.038 137.946 289.027 124.932C289.75 123.727 290.955 123.245 291.919 123.245H293.606C294.811 123.245 295.534 124.209 295.293 125.414L292.883 142.284C292.16 146.863 293.847 148.309 303.005 148.309H320.839L319.634 156.262L302.282 155.298C292.883 155.057 291.437 156.744 290.955 162.528L283.484 227.839C281.797 242.299 283.484 251.216 295.052 251.216C300.113 251.216 303.728 249.288 307.825 246.878L309.03 249.77C304.451 254.349 298.908 258.205 288.786 258.205ZM351.456 258.205C337.478 258.205 327.838 250.252 330.248 230.972L338.201 162.046C338.683 156.021 336.996 154.816 334.104 154.816H323.5L323.982 149.996C335.791 144.935 344.708 137.946 351.697 124.932C352.42 123.727 353.625 123.245 354.589 123.245H356.276C357.481 123.245 358.204 124.209 357.963 125.414L355.553 142.284C354.83 146.863 356.517 148.309 365.675 148.309H383.509L382.304 156.262L364.952 155.298C355.553 155.057 354.107 156.744 353.625 162.528L346.154 227.839C344.467 242.299 346.154 251.216 357.722 251.216C362.783 251.216 366.398 249.288 370.495 246.878L371.7 249.77C367.121 254.349 361.578 258.205 351.456 258.205ZM400.445 258.446C391.046 258.446 385.985 250.252 386.949 243.263L402.373 126.137C404.301 110.954 398.517 107.58 388.395 107.58L389.359 103.483C403.096 103.483 413.941 100.591 421.171 98.663L402.855 239.407C401.65 249.047 408.88 251.698 416.833 247.36L416.11 251.457C410.808 256.277 405.265 258.446 400.445 258.446ZM467.927 258.446C442.14 258.446 423.824 238.925 423.824 210.005C423.824 181.808 441.658 145.658 478.531 145.658C499.98 145.658 510.584 157.467 510.584 173.132C510.584 189.279 499.257 201.811 462.384 208.077L448.888 210.246C442.863 211.21 441.899 216.271 444.55 224.224C449.852 237.72 460.215 247.36 475.639 247.36C485.038 247.36 496.365 243.745 503.354 235.31L506.487 238.684C499.98 247.119 487.689 258.446 467.927 258.446ZM440.453 196.991C440.453 204.462 445.032 205.908 450.334 204.944L459.251 203.498C490.34 198.196 494.437 185.664 494.437 173.855C494.437 160.359 488.412 150.478 474.916 150.478C456.118 150.478 440.453 169.517 440.453 196.991Z" fill="#2D2C2A"/>
<path d="M78.888 355.892C84.512 354.856 87.768 353.82 88.508 348.344L97.388 277.748C98.128 272.272 94.724 271.236 89.248 270.2L89.692 267.092H119.736L119.292 270.2C113.52 271.236 110.264 272.272 109.524 277.748L100.792 348.344C100.052 353.82 103.308 354.856 108.784 355.892L108.488 359H78.444L78.888 355.892ZM126.051 291.956C129.159 289.44 132.415 285.148 132.415 282.78C132.563 281.152 131.971 280.264 130.491 280.264C126.495 280.264 123.683 277.156 123.683 273.16C123.683 268.424 127.383 264.576 132.711 264.576C138.187 264.576 140.555 269.016 140.555 273.604C140.555 282.188 134.487 290.032 127.531 294.028L126.051 291.956ZM228.287 359.888C223.255 359.888 218.667 356.78 219.703 349.676L223.847 317.856C225.771 303.648 221.775 298.468 213.931 298.468C204.903 298.468 197.651 308.384 194.395 332.36L190.843 359H180.335L185.663 317.856C187.439 303.648 183.147 298.468 175.451 298.468C166.275 298.468 158.875 310.9 156.507 329.844L152.659 359H142.151L149.107 303.648C149.847 297.58 145.259 296.248 140.671 298.616L141.263 295.656C144.371 292.4 148.071 291.216 151.327 291.216C156.211 291.216 160.059 293.732 160.059 302.612C160.059 314.008 164.203 290.624 181.815 290.624C188.919 290.624 195.727 294.324 197.059 303.944C198.391 313.268 202.239 290.624 219.999 290.624C229.619 290.624 237.167 296.988 234.799 314.156L230.507 347.012C229.619 353.376 234.355 355.152 239.239 352.488L238.647 355.448C235.391 358.704 231.395 359.888 228.287 359.888Z" fill="#2D2C2A"/>
<path d="M279.042 355.892C284.814 354.856 288.218 353.82 288.662 348.344L297.542 277.748C297.986 272.272 295.174 271.236 289.402 270.2L289.846 267.092H353.634C354.966 267.092 355.706 267.98 355.706 269.164C355.706 273.604 355.558 277.304 356.89 285H354.226C351.71 275.824 346.826 271.236 337.206 271.236H319.298C313.378 271.236 310.27 272.716 309.53 278.192L306.422 303.5C305.83 309.124 308.79 310.16 314.266 310.16H328.474C337.206 310.16 339.426 306.312 341.202 300.984H343.274L340.462 323.628H338.39C337.946 318.448 336.466 314.304 327.882 314.304H313.822C308.05 314.304 304.942 315.488 304.35 320.964L300.946 348.344C300.354 353.82 303.018 354.856 310.122 355.892L309.826 359H278.598L279.042 355.892ZM364.685 303.648C365.425 297.876 360.837 296.248 356.249 298.616L356.841 295.656C359.949 292.4 363.649 291.216 366.905 291.216C371.789 291.216 375.637 293.732 375.637 302.612C375.637 306.164 376.673 306.312 378.153 303.352C380.965 297.728 387.477 290.624 396.801 290.624C402.277 290.624 405.681 293.288 405.681 297.58C405.681 301.132 403.165 304.684 397.097 307.052H396.949C397.245 301.872 394.877 298.912 390.733 298.912C381.557 298.912 374.157 311.048 371.789 330.732L368.237 359H357.729L364.685 303.648ZM430.449 359.888C414.465 359.888 402.773 348.048 402.773 330.14C402.773 312.676 414.169 290.624 437.109 290.624C450.577 290.624 457.385 297.876 457.385 307.644C457.385 317.856 449.985 325.404 427.785 329.104L419.793 330.436C416.093 331.028 415.205 334.284 417.129 339.02C420.237 346.864 426.453 352.488 435.629 352.488C441.401 352.488 448.061 350.268 452.353 345.384L454.425 347.752C450.429 352.784 442.733 359.888 430.449 359.888ZM414.317 322C414.317 326.44 417.129 327.476 420.533 326.884L425.417 326.144C444.065 323.036 446.285 314.896 446.285 307.94C446.285 299.504 442.585 294.028 434.741 294.028C423.345 294.028 414.317 305.72 414.317 322ZM489.603 359.888C473.619 359.888 461.927 348.048 461.927 330.14C461.927 312.676 473.323 290.624 496.263 290.624C509.731 290.624 516.539 297.876 516.539 307.644C516.539 317.856 509.139 325.404 486.939 329.104L478.947 330.436C475.247 331.028 474.359 334.284 476.283 339.02C479.391 346.864 485.607 352.488 494.783 352.488C500.555 352.488 507.215 350.268 511.507 345.384L513.579 347.752C509.583 352.784 501.887 359.888 489.603 359.888ZM473.471 322C473.471 326.44 476.283 327.476 479.687 326.884L484.571 326.144C503.219 323.036 505.439 314.896 505.439 307.94C505.439 299.504 501.739 294.028 493.895 294.028C482.499 294.028 473.471 305.72 473.471 322ZM519.914 370.988C523.022 368.472 526.278 364.18 526.278 361.812C526.426 360.184 525.834 359.296 524.354 359.296C520.358 359.296 517.546 356.188 517.546 352.192C517.546 347.456 521.246 343.608 526.574 343.608C532.05 343.608 534.418 348.048 534.418 352.636C534.418 361.22 528.35 369.064 521.394 373.06L519.914 370.988Z" fill="#2D2C2A"/>
<path d="M0.955 413.92C3.75 413.53 5.505 412.49 5.83 409.955L9.275 381.68C9.6 379.145 8.105 378.105 5.375 377.715L5.635 375.635H15.84L34.365 402.87L36.965 381.68C37.29 379.145 35.73 378.105 33 377.715L33.26 375.635H45.415L45.155 377.715C42.295 378.105 40.605 379.145 40.28 381.68L36.055 416H32.87L12.135 385.58L9.145 409.955C8.82 412.49 10.38 413.53 13.11 413.92L12.85 416H0.695L0.955 413.92ZM56.6595 416.39C49.5745 416.39 43.7245 411.515 43.7245 403.52C43.7245 395.59 49.4445 385.97 60.1045 385.97C66.4745 385.97 69.7895 389.35 69.7895 393.77C69.7895 398.58 65.8245 401.635 56.9845 403.195L54.0595 403.715C52.2395 404.04 51.7195 405.535 52.6945 407.55C53.9945 410.28 56.3995 412.165 60.0395 412.165C62.3795 412.165 64.9145 411.385 66.7995 409.435L68.0345 411.06C66.2795 413.205 62.3795 416.39 56.6595 416.39ZM51.1345 399.49C51.1345 401.245 52.1095 402.025 53.9295 401.765L55.2295 401.57C62.5745 400.465 63.1595 396.24 63.1595 393.77C63.1595 389.74 61.4695 388.31 58.8045 388.31C53.8645 388.31 51.1345 393.51 51.1345 399.49ZM75.6827 393.38C74.9677 390.39 73.0827 389.22 70.6127 390.455L70.8727 388.505C73.0827 386.685 75.3577 386.23 76.9177 386.23C80.4277 386.23 82.1827 388.57 83.0927 392.6L86.7327 408.85C86.9927 409.89 87.6427 410.085 88.2927 409.175C91.7377 404.365 93.9477 399.555 95.1177 396.565C97.3927 390.78 93.6877 389.22 90.7627 390.455L91.0227 388.505C93.0377 387.075 95.1827 386.23 96.9377 386.23C101.228 386.23 100.708 391.105 99.0827 394.745C96.5477 400.4 90.3727 410.41 84.5227 416H81.0777L75.6827 393.38ZM113.697 416.39C106.612 416.39 100.762 411.515 100.762 403.52C100.762 395.59 106.482 385.97 117.142 385.97C123.512 385.97 126.827 389.35 126.827 393.77C126.827 398.58 122.862 401.635 114.022 403.195L111.097 403.715C109.277 404.04 108.757 405.535 109.732 407.55C111.032 410.28 113.437 412.165 117.077 412.165C119.417 412.165 121.952 411.385 123.837 409.435L125.072 411.06C123.317 413.205 119.417 416.39 113.697 416.39ZM108.172 399.49C108.172 401.245 109.147 402.025 110.967 401.765L112.267 401.57C119.612 400.465 120.197 396.24 120.197 393.77C120.197 389.74 118.507 388.31 115.842 388.31C110.902 388.31 108.172 393.51 108.172 399.49ZM132.177 393.835C132.567 390.52 130.747 389.35 128.277 390.455L128.537 388.505C130.812 386.685 133.022 386.23 134.452 386.23C137.377 386.23 139.587 388.18 139.587 391.82C139.587 393.445 139.977 393.445 140.757 392.145C142.057 389.935 145.112 385.97 149.337 385.97C151.937 385.97 153.692 387.4 153.692 389.61C153.692 391.625 152.067 393.445 148.622 394.745H148.557C148.557 392.795 147.777 391.17 145.632 391.17C141.797 391.17 138.937 396.24 137.962 404.495L136.597 416H129.447L132.177 393.835Z" fill="#2D2C2A"/>
<path d="M161.955 413.92C164.75 413.53 166.375 412.49 166.7 409.955L170.145 381.68C170.47 379.145 169.105 378.105 166.375 377.715L166.635 375.635H196.08C196.925 375.635 197.315 376.09 197.315 376.935C197.315 378.885 197.38 380.705 197.77 384.345H196.34C194.91 380.38 193.09 378.3 189.19 378.3H182.82C180.155 378.3 178.79 379.47 178.53 382.005L177.425 390.65C177.165 393.185 178.27 394.225 180.935 394.225H184.965C189.45 394.225 190.49 392.795 191.27 390.13H192.44L191.14 400.985H189.97C189.775 398.45 189.06 396.89 184.575 396.89H180.545C177.88 396.89 176.58 397.93 176.255 400.465L175.085 409.955C174.76 412.49 176.125 413.53 179.505 413.92L179.245 416H161.695L161.955 413.92ZM200.956 393.835C201.346 390.52 199.526 389.35 197.056 390.455L197.316 388.505C199.591 386.685 201.801 386.23 203.231 386.23C206.156 386.23 208.366 388.18 208.366 391.82C208.366 393.445 208.756 393.445 209.536 392.145C210.836 389.935 213.891 385.97 218.116 385.97C220.716 385.97 222.471 387.4 222.471 389.61C222.471 391.625 220.846 393.445 217.401 394.745H217.336C217.336 392.795 216.556 391.17 214.411 391.17C210.576 391.17 207.716 396.24 206.741 404.495L205.376 416H198.226L200.956 393.835ZM234.181 416.39C227.096 416.39 221.246 411.515 221.246 403.52C221.246 395.59 226.966 385.97 237.626 385.97C243.996 385.97 247.311 389.35 247.311 393.77C247.311 398.58 243.346 401.635 234.506 403.195L231.581 403.715C229.761 404.04 229.241 405.535 230.216 407.55C231.516 410.28 233.921 412.165 237.561 412.165C239.901 412.165 242.436 411.385 244.321 409.435L245.556 411.06C243.801 413.205 239.901 416.39 234.181 416.39ZM228.656 399.49C228.656 401.245 229.631 402.025 231.451 401.765L232.751 401.57C240.096 400.465 240.681 396.24 240.681 393.77C240.681 389.74 238.991 388.31 236.326 388.31C231.386 388.31 228.656 393.51 228.656 399.49ZM261.811 416.39C254.726 416.39 248.876 411.515 248.876 403.52C248.876 395.59 254.596 385.97 265.256 385.97C271.626 385.97 274.941 389.35 274.941 393.77C274.941 398.58 270.976 401.635 262.136 403.195L259.211 403.715C257.391 404.04 256.871 405.535 257.846 407.55C259.146 410.28 261.551 412.165 265.191 412.165C267.531 412.165 270.066 411.385 271.951 409.435L273.186 411.06C271.431 413.205 267.531 416.39 261.811 416.39ZM256.286 399.49C256.286 401.245 257.261 402.025 259.081 401.765L260.381 401.57C267.726 400.465 268.311 396.24 268.311 393.77C268.311 389.74 266.621 388.31 263.956 388.31C259.016 388.31 256.286 393.51 256.286 399.49Z" fill="#2D2C2A"/>
<path d="M293.835 413.92C297.93 413.53 299.49 412.49 299.815 409.955L303.065 384.41C303.715 379.145 299.75 378.04 296.695 378.04C294.485 378.04 293.25 378.625 293.25 379.73C293.25 380.835 294.355 381.745 294.355 383.175C294.355 384.93 292.795 385.84 291.17 385.84C289.025 385.84 287.27 384.15 287.27 381.485C287.27 377.715 290.78 375.31 296.825 375.31C304.82 375.31 314.115 379.535 319.055 379.535C320.68 379.535 321.59 379.08 321.59 378.235C321.59 377.39 320.55 376.87 320.55 375.57C320.55 374.205 321.72 373.36 323.215 373.36C325.035 373.36 326.4 374.595 326.4 377.065C326.4 380.25 323.995 382.395 319.64 382.395C317.495 382.395 315.35 381.875 311.775 381.16L308.2 409.955C307.875 412.49 309.24 413.53 313.27 413.92L313.01 416H293.575L293.835 413.92ZM331.79 416.39C324.315 416.39 318.79 411.45 318.79 403.39C318.79 394.745 325.16 385.97 334.91 385.97C342.385 385.97 347.975 390.91 347.975 398.97C347.975 407.615 341.54 416.39 331.79 416.39ZM326.72 401.83C326.72 408.395 328.67 414.05 333.09 414.05C338.355 414.05 339.98 406.575 339.98 400.53C339.98 393.965 338.03 388.31 333.61 388.31C328.345 388.31 326.72 395.785 326.72 401.83Z" fill="#2D2C2A"/>
<path d="M357.955 413.92C360.75 413.53 362.375 412.49 362.7 409.955L366.145 381.68C366.47 379.145 365.105 378.105 362.375 377.715L362.635 375.635H382.785C391.3 375.635 396.63 379.015 396.63 385.125C396.63 391.3 392.405 395.72 385.905 396.63C385.45 396.695 385.385 397.28 385.775 397.41C389.35 398.58 391.04 400.66 392.145 405.665C393.12 409.955 393.77 413.855 396.695 413.855L396.37 416H393.055C386.035 416 384.475 412.62 382.59 404.95C381.42 400.01 379.86 398.32 376.155 398.32C373.36 398.32 372.32 399.425 372.06 401.895L371.085 409.955C370.76 412.49 372.125 413.53 375.505 413.92L375.245 416H357.695L357.955 413.92ZM373.295 391.755C372.97 394.29 373.75 395.395 376.285 395.395H379.015C384.735 395.395 387.985 391.04 387.985 385.255C387.985 381.485 386.425 378.3 381.745 378.3H378.885C375.765 378.3 374.855 379.6 374.53 381.94L373.295 391.755ZM411.12 416.39C404.035 416.39 398.185 411.515 398.185 403.52C398.185 395.59 403.905 385.97 414.565 385.97C420.935 385.97 424.25 389.35 424.25 393.77C424.25 398.58 420.285 401.635 411.445 403.195L408.52 403.715C406.7 404.04 406.18 405.535 407.155 407.55C408.455 410.28 410.86 412.165 414.5 412.165C416.84 412.165 419.375 411.385 421.26 409.435L422.495 411.06C420.74 413.205 416.84 416.39 411.12 416.39ZM405.595 399.49C405.595 401.245 406.57 402.025 408.39 401.765L409.69 401.57C417.035 400.465 417.62 396.24 417.62 393.77C417.62 389.74 415.93 388.31 413.265 388.31C408.325 388.31 405.595 393.51 405.595 399.49ZM434.728 416.39C427.708 416.39 424.393 412.555 424.393 408.98C424.393 407.42 425.043 405.34 427.448 405.34C429.918 405.34 429.788 406.705 429.788 408.2C429.788 412.035 431.803 414.505 435.118 414.505C439.018 414.505 439.993 411.645 439.993 409.955C439.993 404.755 426.863 402.675 426.863 394.03C426.863 389.48 430.893 385.97 437.653 385.97C444.803 385.97 447.468 389.935 447.468 393.185C447.468 395.525 446.038 396.305 444.283 396.305C442.268 396.305 441.943 395.005 441.943 394.03C441.943 390.52 440.643 387.79 437.458 387.79C434.533 387.79 433.753 389.935 433.753 391.56C433.753 397.735 447.208 398.97 447.208 407.355C447.208 412.1 442.333 416.39 434.728 416.39ZM458.95 416.325C454.01 416.325 451.15 413.465 451.865 407.55L453.815 391.69C454.075 389.675 453.49 389.285 452.32 389.285H449.525L449.785 387.465C454.205 386.165 456.87 384.02 459.015 380.38C459.405 379.73 459.795 379.535 460.38 379.535H461.225C461.94 379.535 462.265 379.99 462.2 380.705L461.68 384.93C461.485 386.295 462.005 386.685 464.865 386.685H469.09L468.765 389.675L464.605 389.415C461.68 389.22 461.16 389.805 460.9 391.82L459.145 407.03C458.69 410.735 459.015 413.14 461.615 413.14C462.59 413.14 464.085 412.815 465.255 411.97L466.035 413.465C464.475 415.155 462.07 416.325 458.95 416.325Z" fill="#2D2C2A"/>
</svg>
