<?xml version="1.0" encoding="UTF-8"?>
<svg id="Layer_2" data-name="Layer 2" xmlns="http://www.w3.org/2000/svg" viewBox="0 0 1268.19 245.48">
  <defs>
    <style>
      .cls-1 {
        fill: #000;
        stroke-width: 0px;
      }
    </style>
  </defs>
  <g id="Layer_1-2" data-name="Layer 1">
    <path class="cls-1" d="M23.67,25.2c-2.59-10.66-4.32-13.68-11.23-14.83l.43-3.46h31.39l-.43,3.46c-8.64,1.44-8.64,4.18-7.2,10.08l13.1,53.57c.58,2.45,2.45,2.45,3.6,0l15.84-32.26c3.31-6.91,3.46-12.67,2.16-17.57-2.74-9.79-4.18-12.67-10.94-13.82l.43-3.46h31.54l-.43,3.46c-8.64,1.44-8.78,4.18-7.34,10.08l13.1,53.57c.58,2.45,2.45,2.45,3.6,0l25.63-52.85c3.17-6.48.58-9.65-7.34-10.8l.29-3.46h27.07l-.43,3.46c-6.91,1.44-10.37,4.03-13.82,11.23l-30.82,62.93c-2.74,5.62-4.03,9.07-4.46,11.81h-8.06l-13.97-55.58-21.46,43.78c-2.74,5.62-4.03,9.07-4.32,11.81h-8.06L23.67,25.2ZM199.82,97.2c-5.33,0-10.08-3.46-9.07-10.8l3.74-29.09c1.87-13.68-1.73-19.01-9.5-19.01-10.94,0-19.44,10.51-22.03,31.1l-3.46,26.93h-11.66l9.94-77.04c1.15-9.22-1.87-11.38-8.35-11.38l.58-3.31c9.07,0,15.98-1.44,21.74-2.88l-5.18,40.46c-1.3,9.65,6.91-12.38,25.2-12.38,9.5,0,17.14,6.05,14.83,23.62l-3.89,30.53c-.86,6.19,3.74,8.06,8.5,5.47l-.58,3.31c-3.6,3.31-7.78,4.46-10.8,4.46ZM227.7,97.2c-5.18,0-9.94-3.46-8.93-10.8l6.19-42.91c.86-6.05-3.46-7.63-8.21-5.33l.58-3.31c3.46-3.31,7.92-4.46,10.94-4.46,5.18,0,9.79,3.46,8.78,10.8l-6.19,43.06c-.86,5.76,3.6,7.78,8.35,5.18l-.58,3.31c-3.6,3.31-7.92,4.46-10.94,4.46ZM225.4,7.92c0-4.61,3.46-7.92,7.92-7.92s7.92,3.31,7.92,7.92-3.6,7.92-7.92,7.92-7.92-3.31-7.92-7.92ZM256.57,97.2c-6.34,0-9.79-4.75-9.07-10.8l8.78-67.1c1.15-9.22-1.87-11.38-8.35-11.38l.58-3.31c9.07,0,16.13-1.44,21.89-2.88l-10.66,82.51c-.72,5.76,3.6,7.78,8.35,5.18l-.58,3.31c-3.6,3.31-7.92,4.46-10.94,4.46ZM299.84,97.2c-15.55,0-27.36-11.38-27.36-28.8s11.52-38.59,34.13-38.59c13.25,0,20.16,7.2,20.16,16.7,0,10.08-7.63,17.28-28.66,20.88l-7.49,1.3c-3.74.58-4.61,3.74-2.74,8.35,3.02,7.34,8.93,12.38,17.57,12.38,5.47,0,11.81-2.02,15.98-6.62l2.16,2.59c-3.89,4.9-11.66,11.81-23.76,11.81ZM285.01,60.19c0,4.32,2.59,5.47,6.05,4.9l4.32-.72c17.71-2.88,19.58-11.09,19.58-17.57,0-8.35-3.6-13.1-10.8-13.1-11.09,0-19.15,11.38-19.15,26.5ZM348.56,92.88c5.62-1.01,8.93-2.3,9.65-7.63l8.35-67.25c.72-5.33-2.45-6.77-7.92-7.63l.43-3.46h31.25l-.43,3.46c-5.76.86-9.07,2.3-9.79,7.63l-8.21,67.25c-.72,5.33,2.45,6.62,7.92,7.63l-.43,3.46h-31.25l.43-3.46ZM443.07,97.2c-5.18,0-9.94-3.46-8.93-10.8l3.74-29.23c1.87-13.54-1.73-18.86-9.5-18.86-11.81,0-19.73,11.95-22.03,31.1l-3.46,26.93h-11.66l6.62-52.56c.72-6.34-3.6-7.92-8.35-5.62l.58-3.31c3.46-3.31,7.49-4.46,10.66-4.46,5.04,0,9.22,3.02,9.22,11.38,0,10.08,6.19-11.95,24.91-11.95,9.79,0,17.42,6.05,15.12,23.62l-3.89,30.53c-.86,6.19,3.6,8.06,8.35,5.47l-.58,3.31c-3.46,3.31-7.78,4.46-10.8,4.46ZM478.62,92.88c5.76-1.01,8.93-2.3,9.65-7.63l8.21-67.39c.58-5.18-2.16-6.62-7.78-7.49l.43-3.46h40.03c19.15,0,29.81,6.05,29.81,19.01,0,10.8-7.49,19.15-22.75,22.61,14.54,2.45,22.03,9.36,22.03,20.88,0,15.98-14.54,26.93-32.11,26.93-14.11,0-32.69-2.59-47.95,0l.43-3.46ZM501.8,85.25c-.43,3.74.58,6.19,4.61,6.19h15.12c15.26,0,22.18-9.07,22.18-21.89s-7.78-19.44-28.94-19.44c-5.62,0-8.93,1.44-9.5,6.91l-3.46,28.22ZM507.42,39.46c-.58,4.9,2.3,6.34,7.92,6.34h9.07c13.68,0,20.3-8.21,20.3-20.02,0-9.5-4.75-14.4-15.98-14.4h-9.07c-5.76,0-8.93,1.3-9.5,6.48l-2.74,21.6ZM587.12,97.2c-12.67,0-22.61-8.93-22.61-26.5,0-21.89,15.12-40.61,36.29-40.61,8.35,0,12.24,2.88,16.99,2.88,3.46,0,4.18-1.58,5.9-1.58,1.44,0,2.16.86,2.02,2.3l-6.34,50.54c-.72,5.76,3.6,7.78,8.35,5.18l-.58,3.31c-3.74,3.31-7.06,4.46-10.22,4.46-5.33,0-8.35-3.17-9.22-6.48-.58-2.3-1.58-2.16-3.6-.29-5.04,4.75-10.94,6.77-16.99,6.77ZM577.61,67.54c0,13.68,5.76,22.9,15.55,22.9,7.34,0,14.54-5.04,16.99-25.06l1.15-9.5c1.87-15.55-2.02-21.74-10.94-21.74-15.26,0-22.75,17.86-22.75,33.41ZM651.93,97.06c-9.5,0-15.41-5.33-13.97-17.57l4.61-38.74c.43-3.89-.72-4.75-2.74-4.75h-6.34l.43-3.31c8.21-3.02,13.68-7.34,18.14-15.26.58-1.01,1.3-1.3,2.16-1.3h1.44c1.01,0,1.58.72,1.44,1.73l-1.3,9.79c-.43,2.88.58,3.74,6.34,3.74h10.22l-.72,5.47-9.94-.58c-5.9-.29-6.91.86-7.34,4.75l-4.18,36.86c-1.01,8.5-.14,13.82,6.34,13.82,2.59,0,5.33-1.01,7.78-2.59l1.15,2.45c-3.02,3.02-7.2,5.47-13.54,5.47ZM692.19,97.06c-9.5,0-15.41-5.33-13.97-17.57l4.61-38.74c.43-3.89-.72-4.75-2.74-4.75h-6.34l.43-3.31c8.21-3.02,13.68-7.34,18.14-15.26.58-1.01,1.3-1.3,2.16-1.3h1.44c1.01,0,1.58.72,1.44,1.73l-1.3,9.79c-.43,2.88.58,3.74,6.34,3.74h10.22l-.72,5.47-9.94-.58c-5.9-.29-6.91.86-7.34,4.75l-4.18,36.86c-1.01,8.5-.14,13.82,6.34,13.82,2.59,0,5.33-1.01,7.78-2.59l1.15,2.45c-3.02,3.02-7.2,5.47-13.54,5.47ZM723.98,97.2c-6.34,0-9.79-4.75-9.07-10.8l8.78-67.1c1.15-9.22-1.87-11.38-8.35-11.38l.58-3.31c9.07,0,16.13-1.44,21.89-2.88l-10.66,82.51c-.72,5.76,3.6,7.78,8.35,5.18l-.58,3.31c-3.6,3.31-7.92,4.46-10.94,4.46ZM767.25,97.2c-15.55,0-27.36-11.38-27.36-28.8s11.52-38.59,34.13-38.59c13.25,0,20.16,7.2,20.16,16.7,0,10.08-7.63,17.28-28.66,20.88l-7.49,1.3c-3.74.58-4.61,3.74-2.74,8.35,3.02,7.34,8.93,12.38,17.57,12.38,5.47,0,11.81-2.02,15.98-6.62l2.16,2.59c-3.89,4.9-11.66,11.81-23.76,11.81ZM752.42,60.19c0,4.32,2.59,5.47,6.05,4.9l4.32-.72c17.71-2.88,19.58-11.09,19.58-17.57,0-8.35-3.6-13.1-10.8-13.1-11.09,0-19.15,11.38-19.15,26.5ZM797.15,108.58c3.6-2.88,6.62-7.06,6.77-9.36.14-1.58-.43-2.45-1.87-2.45-4.03,0-7.2-3.31-7.2-7.49,0-4.9,3.74-8.78,9.36-8.78s8.35,4.32,8.35,9.22c0,8.78-6.48,16.99-13.54,21.17l-1.87-2.3ZM838.23,92.88c5.62-1.01,8.93-2.3,9.65-7.63l8.35-67.25c.72-5.33-2.45-6.77-7.92-7.63l.43-3.46h31.25l-.43,3.46c-5.76.86-9.08,2.3-9.79,7.63l-8.21,67.25c-.72,5.33,2.45,6.62,7.92,7.63l-.43,3.46h-31.25l.43-3.46ZM886.08,32.69c3.6-2.88,6.63-7.06,6.77-9.36.15-1.58-.43-2.45-1.87-2.45-4.03,0-7.2-3.31-7.2-7.49,0-4.9,3.74-8.78,9.36-8.78s8.35,4.32,8.35,9.22c0,8.78-6.48,16.99-13.53,21.17l-1.88-2.3ZM989.13,97.2c-5.33,0-10.08-3.46-9.08-10.8l3.89-29.09c1.87-13.54-1.44-19.01-9.36-19.01-8.78,0-15.55,10.08-18.57,32.69l-3.32,25.34h-11.66l5.04-39.02c1.73-13.54-1.73-19.01-9.65-19.01-8.93,0-15.69,11.95-18.14,31.1l-3.46,26.93h-11.66l6.62-52.56c.72-6.34-3.6-7.92-8.35-5.62l.58-3.31c3.45-3.31,7.48-4.46,10.65-4.46,5.04,0,9.22,3.02,9.22,11.38,0,10.8,4.32-11.95,21.74-11.95,6.63,0,13.25,3.46,14.69,12.96,1.58,9.79,5.33-12.96,23.04-12.96,9.22,0,16.99,6.05,14.69,23.62l-4.03,30.53c-.87,6.19,3.74,8.06,8.49,5.47l-.57,3.31c-3.46,3.31-7.78,4.46-10.8,4.46ZM1024.71,92.88c5.76-1.01,9.08-2.3,9.65-7.63l8.35-67.25c.58-5.33-2.3-6.77-7.92-7.63l.44-3.46h62.78c1.44,0,2.16.86,2.16,2.16,0,4.32,0,8.06,1.15,15.84h-2.73c-2.6-8.93-7.2-13.39-16.42-13.39h-16.42c-5.9,0-8.92,1.58-9.5,7.06l-2.88,23.18c-.58,5.47,2.16,6.91,7.63,6.91h12.53c8.93,0,11.09-3.6,12.82-8.93h2.16l-2.74,22.46h-2.16c-.43-5.18-1.87-9.07-10.66-9.07h-12.52c-5.62,0-8.64,1.44-9.22,6.91l-3.17,25.2c-.57,5.33,2.02,6.62,9.07,7.63l-.28,3.46h-32.55l.43-3.46ZM1108.88,43.78c.72-6.19-3.6-7.92-8.35-5.62l.58-3.31c3.45-3.31,7.49-4.46,10.65-4.46,5.04,0,9.22,3.02,9.22,11.38,0,3.46,1.01,3.6,2.45.72,2.73-5.18,9.21-12.67,18.29-12.67,5.47,0,8.92,2.74,8.92,7.06,0,3.74-2.73,7.34-9.07,9.79h-.14c.14-4.9-1.87-7.92-6.19-7.92-8.79,0-15.7,11.66-18,30.67l-3.32,26.93h-11.66l6.62-52.56ZM1175.27,97.2c-15.55,0-27.36-11.38-27.36-28.8s11.52-38.59,34.13-38.59c13.25,0,20.16,7.2,20.16,16.7,0,10.08-7.63,17.28-28.65,20.88l-7.49,1.3c-3.75.58-4.61,3.74-2.74,8.35,3.03,7.34,8.93,12.38,17.57,12.38,5.47,0,11.81-2.02,15.98-6.62l2.16,2.59c-3.88,4.9-11.66,11.81-23.76,11.81ZM1160.44,60.19c0,4.32,2.59,5.47,6.05,4.9l4.32-.72c17.71-2.88,19.58-11.09,19.58-17.57,0-8.35-3.6-13.1-10.8-13.1-11.08,0-19.15,11.38-19.15,26.5ZM1233.67,97.2c-15.55,0-27.36-11.38-27.36-28.8s11.52-38.59,34.13-38.59c13.25,0,20.16,7.2,20.16,16.7,0,10.08-7.63,17.28-28.65,20.88l-7.49,1.3c-3.75.58-4.61,3.74-2.74,8.35,3.03,7.34,8.93,12.38,17.57,12.38,5.47,0,11.81-2.02,15.98-6.62l2.16,2.59c-3.88,4.9-11.66,11.81-23.76,11.81ZM1218.84,60.19c0,4.32,2.59,5.47,6.05,4.9l4.32-.72c17.71-2.88,19.58-11.09,19.58-17.57,0-8.35-3.6-13.1-10.8-13.1-11.08,0-19.15,11.38-19.15,26.5Z"/>
    <path class="cls-1" d="M.57,240.35c7.22-1.33,11.21-2.66,12.16-9.69l11.21-90.63c.95-7.03-3.04-8.36-10.07-9.69l.57-3.99h23.75l54.34,92.15,9.69-78.47c.95-7.03-2.85-8.36-9.69-9.69l.57-3.99h28.12l-.57,3.99c-7.41,1.33-11.02,2.66-11.97,9.69l-12.92,104.31h-6.27l-59.85-100.32-10.64,86.64c-.95,7.03,2.47,8.36,9.31,9.69l-.38,3.99H0l.57-3.99ZM151.85,245.48c-20.52,0-35.53-15.2-35.53-38.19s14.63-50.73,44.08-50.73c17.29,0,26.03,9.31,26.03,21.85s-9.5,22.8-38,27.55l-10.26,1.71c-4.75.76-5.89,4.94-3.42,11.02,3.99,10.07,11.97,17.29,23.75,17.29,7.41,0,15.96-2.85,21.47-9.12l2.66,3.04c-5.13,6.46-15.01,15.58-30.78,15.58ZM131.14,196.84c0,5.7,3.61,7.03,7.98,6.27l6.27-.95c23.94-3.99,26.79-14.44,26.79-23.37,0-10.83-4.75-17.86-14.82-17.86-14.63,0-26.22,15.01-26.22,35.91ZM206.62,178.22c-2.09-8.74-5.32-16.91-16.34-11.4l.76-3.8c6.08-4.94,11.59-5.7,14.82-5.7,9.31,0,12.54,6.84,15.2,18.62l11.97,50.35c.76,3.23,2.85,3.61,4.75.95,11.97-16.91,18.43-31.92,21.85-42.18,5.7-17.1-2.47-23.75-11.97-18.24l.76-3.8c4.94-4.18,10.64-5.7,14.44-5.7,11.59,0,10.64,14.25,6.46,23.75-7.98,17.67-22.23,41.61-40.47,63.27h-5.7l-16.53-66.12ZM309.11,245.48c-20.52,0-35.53-15.2-35.53-38.19s14.63-50.73,44.08-50.73c17.29,0,26.03,9.31,26.03,21.85s-9.5,22.8-38,27.55l-10.26,1.71c-4.75.76-5.89,4.94-3.42,11.02,3.99,10.07,11.97,17.29,23.75,17.29,7.41,0,15.96-2.85,21.47-9.12l2.66,3.04c-5.13,6.46-15.01,15.58-30.78,15.58ZM288.4,196.84c0,5.7,3.61,7.03,7.98,6.27l6.27-.95c23.94-3.99,26.79-14.44,26.79-23.37,0-10.83-4.75-17.86-14.82-17.86-14.63,0-26.22,15.01-26.22,35.91ZM361.53,173.28c.95-7.41-4.94-9.5-10.83-6.46l.76-3.8c3.99-4.18,8.74-5.7,12.92-5.7,6.27,0,11.21,3.23,11.21,14.63,0,4.56,1.33,4.75,3.23.95,3.61-7.22,11.97-16.34,23.94-16.34,7.03,0,11.4,3.42,11.4,8.93,0,4.56-3.23,9.12-11.02,12.16h-.19c.38-6.65-2.66-10.45-7.98-10.45-11.78,0-21.28,15.58-24.32,40.85l-4.56,36.29h-13.49l8.93-71.06ZM437.47,240.35c7.41-1.33,11.78-2.66,12.35-9.69l11.4-90.63c.57-7.03-3.04-8.36-10.45-9.69l.57-3.99h81.89c1.71,0,2.66,1.14,2.66,2.66,0,5.7-.19,10.45,1.52,20.33h-3.42c-3.23-11.78-9.5-17.67-21.85-17.67h-22.99c-7.6,0-11.59,1.9-12.54,8.93l-3.99,32.49c-.76,7.22,3.04,8.55,10.07,8.55h18.24c11.21,0,14.06-4.94,16.34-11.78h2.66l-3.61,29.07h-2.66c-.57-6.65-2.47-11.97-13.49-11.97h-18.05c-7.41,0-11.4,1.52-12.16,8.55l-4.37,35.15c-.76,7.03,2.66,8.36,11.78,9.69l-.38,3.99h-40.09l.57-3.99ZM547.42,173.28c.95-7.41-4.94-9.5-10.83-6.46l.76-3.8c3.99-4.18,8.74-5.7,12.92-5.7,6.27,0,11.21,3.23,11.21,14.63,0,4.56,1.33,4.75,3.23.95,3.61-7.22,11.97-16.34,23.94-16.34,7.03,0,11.4,3.42,11.4,8.93,0,4.56-3.23,9.12-11.02,12.16h-.19c.38-6.65-2.66-10.45-7.98-10.45-11.78,0-21.28,15.58-24.32,40.85l-4.56,36.29h-13.49l8.93-71.06ZM631.85,245.48c-20.52,0-35.53-15.2-35.53-38.19s14.63-50.73,44.08-50.73c17.29,0,26.03,9.31,26.03,21.85s-9.5,22.8-38,27.55l-10.26,1.71c-4.75.76-5.89,4.94-3.42,11.02,3.99,10.07,11.97,17.29,23.75,17.29,7.41,0,15.96-2.85,21.47-9.12l2.66,3.04c-5.13,6.46-15.01,15.58-30.78,15.58ZM611.14,196.84c0,5.7,3.61,7.03,7.98,6.27l6.27-.95c23.94-3.99,26.79-14.44,26.79-23.37,0-10.83-4.75-17.86-14.82-17.86-14.63,0-26.22,15.01-26.22,35.91ZM707.79,245.48c-20.52,0-35.53-15.2-35.53-38.19s14.63-50.73,44.08-50.73c17.29,0,26.03,9.31,26.03,21.85s-9.5,22.8-38,27.55l-10.26,1.71c-4.75.76-5.89,4.94-3.42,11.02,3.99,10.07,11.97,17.29,23.75,17.29,7.41,0,15.96-2.85,21.47-9.12l2.66,3.04c-5.13,6.46-15.01,15.58-30.78,15.58ZM687.08,196.84c0,5.7,3.61,7.03,7.98,6.27l6.27-.95c23.94-3.99,26.79-14.44,26.79-23.37,0-10.83-4.75-17.86-14.82-17.86-14.63,0-26.22,15.01-26.22,35.91ZM799.65,240.35c11.21-1.33,15.39-2.66,16.34-9.69l9.88-81.7c1.71-14.25-9.12-17.48-19.57-17.48-8.36,0-11.97,2.09-11.97,4.94,0,2.66,3.61,3.99,3.61,7.98s-3.61,5.89-7.22,5.89c-5.32,0-8.74-4.37-8.74-9.88,0-8.93,8.36-15.01,24.13-15.01,21.66,0,47.88,11.4,61.37,11.4,5.51,0,8.74-1.9,8.74-4.37,0-1.9-3.23-3.42-3.23-7.03,0-3.42,3.23-4.94,6.08-4.94,4.94,0,7.41,3.8,7.41,8.93,0,7.79-6.27,13.87-17.48,13.87-7.03,0-15.39-2.28-26.22-4.75l-11.02,92.15c-.95,7.03,2.47,8.36,13.87,9.69l-.57,3.99h-45.98l.57-3.99ZM901.13,245.48c-21.09,0-36.86-15.2-36.86-38.76s17.1-50.16,44.84-50.16c21.09,0,36.67,15.2,36.67,38.76s-16.91,50.16-44.65,50.16ZM880.23,200.83c0,18.62,7.03,40.09,24.51,40.09s25.27-19.95,25.27-39.71c0-18.62-7.03-40.28-24.51-40.28s-25.27,19.95-25.27,39.9ZM975.05,240.35c7.41-1.33,11.4-2.66,12.35-9.69l11.4-90.63c.95-7.03-3.04-8.36-10.45-9.69l.57-3.99h49.21c25.84,0,38.76,10.07,38.76,27.17s-10.45,27.93-28.88,34.01c-1.33.38-1.52,1.33-.38,1.71,10.64,3.61,14.82,13.11,16.34,22.8,3.61,20.52,5.7,28.31,12.92,28.31l-.57,3.99h-4.56c-17.29,0-21.85-10.83-24.7-30.21-2.66-17.48-10.45-23.37-25.65-23.37-10.83,0-13.87,3.23-14.63,10.26l-3.61,29.64c-.76,7.03,2.66,8.36,11.78,9.69l-.38,3.99h-40.09l.57-3.99ZM1010.2,174.8c-.76,7.22,1.33,10.26,8.93,10.26h12.73c19.57,0,28.31-13.3,28.31-32.49,0-12.16-5.89-20.9-22.23-20.9h-11.4c-8.55,0-11.59,1.52-12.35,8.55l-3.99,34.58ZM1116.86,245.48c-20.52,0-35.53-15.2-35.53-38.19s14.63-50.73,44.08-50.73c17.29,0,26.03,9.31,26.03,21.85s-9.5,22.8-38,27.55l-10.26,1.71c-4.75.76-5.89,4.94-3.42,11.02,3.99,10.07,11.97,17.29,23.75,17.29,7.41,0,15.96-2.85,21.47-9.12l2.66,3.04c-5.13,6.46-15.01,15.58-30.78,15.58ZM1096.15,196.84c0,5.7,3.61,7.03,7.98,6.27l6.27-.95c23.94-3.99,26.79-14.44,26.79-23.37,0-10.83-4.75-17.86-14.82-17.86-14.63,0-26.22,15.01-26.22,35.91ZM1180.47,245.48c-18.81,0-27.55-9.5-27.55-19.95,0-5.13,1.9-10.07,7.79-10.07,3.42,0,5.13,1.9,5.13,6.46,0,9.12,2.47,19.95,15.39,19.95,11.97,0,16.53-9.12,16.53-16.72,0-16.72-35.91-24.51-35.91-47.5,0-10.83,8.17-21.09,26.79-21.09,21.09,0,25.84,13.87,25.84,20.52,0,4.75-2.85,7.6-7.03,7.6-3.42,0-5.7-1.9-5.7-5.51,0-8.36-3.23-19-14.25-19-9.5,0-12.54,6.84-12.54,12.73,0,18.81,36.48,24.89,36.48,48.26,0,11.02-9.12,24.32-30.97,24.32ZM1242.16,245.29c-11.78,0-19.57-6.65-17.67-22.42l6.27-52.63c.38-4.94-.95-5.89-3.42-5.89h-8.55l.57-4.18c10.07-3.99,17.1-9.5,22.99-19.95.57-1.14,1.52-1.52,2.47-1.52h1.52c1.14,0,1.9.76,1.71,1.9l-1.71,13.11c-.57,3.8.76,4.94,8.17,4.94h13.68l-.95,6.84-13.3-.76c-7.6-.38-8.93,1.14-9.5,5.89l-5.51,50.16c-1.33,11.21-.19,18.24,8.55,18.24,3.8,0,7.03-1.33,10.26-3.42l1.33,2.66c-3.8,3.8-8.74,7.03-16.91,7.03Z"/>
  </g>
</svg>