<svg width="943" height="965" viewBox="0 0 943 965" fill="none" xmlns="http://www.w3.org/2000/svg">
<path d="M74.668 154.632C69.772 134.504 66.508 128.792 53.452 126.616L54.268 120.088H113.564L112.748 126.616C96.428 129.336 96.428 134.504 99.148 145.656L123.9 246.84C124.988 251.464 128.524 251.464 130.7 246.84L160.62 185.912C166.876 172.856 167.148 161.976 164.7 152.728C159.532 134.232 156.812 128.792 144.028 126.616L144.844 120.088H204.412L203.596 126.616C187.276 129.336 187.004 134.504 189.724 145.656L214.476 246.84C215.564 251.464 219.1 251.464 221.276 246.84L269.692 147.016C275.676 134.776 270.78 128.792 255.82 126.616L256.364 120.088H307.5L306.684 126.616C293.628 129.336 287.1 134.232 280.572 147.832L222.364 266.696C217.196 277.304 214.748 283.832 213.932 289H198.7L172.316 184.008L131.788 266.696C126.62 277.304 124.172 283.832 123.628 289H108.396L74.668 154.632ZM407.394 290.632C397.33 290.632 388.354 284.104 390.258 270.232L397.33 215.288C400.866 189.448 394.066 179.384 379.378 179.384C358.706 179.384 342.658 199.24 337.762 238.136L331.234 289H309.202L327.97 143.48C330.146 126.072 324.434 121.992 312.194 121.992L313.282 115.736C330.418 115.736 343.474 113.016 354.354 110.296L344.562 186.728C342.114 204.952 357.618 163.336 392.162 163.336C410.114 163.336 424.53 174.76 420.178 207.944L412.834 265.608C411.202 277.304 419.906 280.84 428.882 275.944L427.794 282.2C420.994 288.456 413.106 290.632 407.394 290.632ZM460.073 290.632C450.281 290.632 441.305 284.104 443.209 270.232L454.905 189.176C456.537 177.752 448.377 174.76 439.401 179.112L440.489 172.856C447.017 166.6 455.449 164.424 461.161 164.424C470.953 164.424 479.657 170.952 477.753 184.824L466.057 266.152C464.425 277.032 472.857 280.84 481.833 275.944L480.745 282.2C473.945 288.456 465.785 290.632 460.073 290.632ZM455.721 121.992C455.721 113.288 462.249 107.032 470.681 107.032C478.841 107.032 485.641 113.288 485.641 121.992C485.641 130.696 478.841 136.952 470.681 136.952C462.249 136.952 455.721 130.696 455.721 121.992ZM514.6 290.632C502.632 290.632 496.104 281.656 497.464 270.232L514.056 143.48C516.232 126.072 510.52 121.992 498.28 121.992L499.368 115.736C516.504 115.736 529.832 113.016 540.712 110.296L520.584 266.152C519.224 277.032 527.384 280.84 536.36 275.944L535.272 282.2C528.472 288.456 520.312 290.632 514.6 290.632ZM596.328 290.632C566.952 290.632 544.648 269.144 544.648 236.232C544.648 203.864 566.408 163.336 609.112 163.336C634.136 163.336 647.192 176.936 647.192 194.888C647.192 213.928 632.776 227.528 593.064 234.328L578.92 236.776C571.848 237.864 570.216 243.848 573.752 252.552C579.464 266.424 590.616 275.944 606.936 275.944C617.272 275.944 629.24 272.136 637.128 263.432L641.208 268.328C633.864 277.576 619.176 290.632 596.328 290.632ZM568.312 220.728C568.312 228.888 573.208 231.064 579.736 229.976L587.896 228.616C621.352 223.176 624.888 207.672 624.888 195.432C624.888 179.656 618.088 170.68 604.488 170.68C583.544 170.68 568.312 192.168 568.312 220.728Z" fill="#2D2C2A"/>
<path d="M666.132 282.472C676.74 280.568 682.996 278.12 684.356 268.056L700.132 141.032C701.492 130.968 695.508 128.248 685.172 126.616L685.988 120.088H745.012L744.196 126.616C733.316 128.248 727.06 130.968 725.7 141.032L710.196 268.056C708.836 278.12 714.82 280.568 725.156 282.472L724.34 289H665.316L666.132 282.472ZM844.651 290.632C834.859 290.632 825.883 284.104 827.787 270.232L834.859 215.016C838.395 189.448 831.595 179.384 816.907 179.384C794.603 179.384 779.643 201.96 775.291 238.136L768.763 289H746.731L759.243 189.72C760.603 177.752 752.443 174.76 743.467 179.112L744.555 172.856C751.083 166.6 758.699 164.424 764.683 164.424C774.203 164.424 782.091 170.136 782.091 185.912C782.091 204.952 793.787 163.336 829.147 163.336C847.643 163.336 862.059 174.76 857.707 207.944L850.363 265.608C848.731 277.304 857.163 280.84 866.139 275.944L865.051 282.2C858.523 288.456 850.363 290.632 844.651 290.632Z" fill="#2D2C2A"/>
<path d="M21.1 558.44C37.48 555.08 45.46 552.98 47.56 538.28L72.76 332.48C74.44 318.2 66.88 315.68 51.34 312.74L52.18 305.18H166.42C216.82 305.18 246.22 322.82 246.22 360.2C246.22 388.76 228.58 415.64 179.86 427.4C220.6 434.96 243.7 454.7 243.7 488.3C243.7 533.66 202.54 566 154.66 566C104.26 566 60.16 558.86 20.26 566L21.1 558.44ZM77.38 535.76C76.12 546.68 78.64 554.66 90.4 554.66H145C190.36 554.66 210.52 527.36 210.52 489.14C210.52 450.08 187.42 430.34 118.54 430.34C100.06 430.34 89.56 432.44 87.88 448.4L77.38 535.76ZM93.76 403.88C92.08 417.32 101.32 419.84 117.28 419.84H149.62C192.88 419.84 214.3 395.9 214.3 358.94C214.3 330.8 200.02 315.26 164.32 315.26H130.3C113.92 315.26 104.68 317.78 103 332.48L93.76 403.88ZM326.883 568.52C288.243 568.52 261.783 541.22 261.783 491.24C261.783 427.82 304.203 372.8 365.523 372.8C388.623 372.8 397.863 380.36 409.203 380.36C417.603 380.36 419.703 376.58 424.323 376.58C428.103 376.58 430.203 378.68 429.783 382.88L410.463 535.34C408.363 552.14 420.963 556.76 434.823 549.2L433.563 556.34C423.903 564.74 416.343 568.52 407.523 568.52C392.823 568.52 386.523 558.86 384.843 550.46C383.163 543.32 379.803 545 374.763 549.62C360.483 562.64 344.523 568.52 326.883 568.52ZM291.183 482.84C291.183 522.32 307.983 553.82 340.743 553.82C363.423 553.82 384.003 539.54 391.983 476.96L395.763 445.88C401.223 401.78 392.823 381.62 363.003 381.62C313.023 381.62 291.183 437.9 291.183 482.84ZM503.109 568.1C478.749 568.1 461.949 554.24 466.149 520.64L480.009 400.52C480.849 390.02 477.909 387.92 472.869 387.92H454.389L455.229 379.52C475.809 370.7 491.349 358.52 503.529 335.84C504.789 333.74 506.889 332.9 508.569 332.9H511.509C513.609 332.9 514.869 334.58 514.449 336.68L510.249 366.08C508.989 374.06 511.929 376.58 527.889 376.58H558.969L556.869 390.44L526.629 388.76C510.249 388.34 507.729 391.28 506.889 401.36L493.869 515.18C490.929 540.38 493.869 555.92 514.029 555.92C522.849 555.92 529.149 552.56 536.289 548.36L538.389 553.4C530.409 561.38 520.749 568.1 503.109 568.1ZM612.325 568.1C587.965 568.1 571.165 554.24 575.365 520.64L589.225 400.52C590.065 390.02 587.125 387.92 582.085 387.92H563.605L564.445 379.52C585.025 370.7 600.565 358.52 612.745 335.84C614.005 333.74 616.105 332.9 617.785 332.9H620.725C622.825 332.9 624.085 334.58 623.665 336.68L619.465 366.08C618.205 374.06 621.145 376.58 637.105 376.58H668.185L666.085 390.44L635.845 388.76C619.465 388.34 616.945 391.28 616.105 401.36L603.085 515.18C600.145 540.38 603.085 555.92 623.245 555.92C632.065 555.92 638.365 552.56 645.505 548.36L647.605 553.4C639.625 561.38 629.965 568.1 612.325 568.1ZM697.7 568.52C681.32 568.52 672.5 554.24 674.18 542.06L701.06 337.94C704.42 311.48 694.34 305.6 676.7 305.6L678.38 298.46C702.32 298.46 721.22 293.42 733.82 290.06L701.9 535.34C699.8 552.14 712.4 556.76 726.26 549.2L725 556.34C715.76 564.74 706.1 568.52 697.7 568.52ZM815.304 568.52C770.364 568.52 738.444 534.5 738.444 484.1C738.444 434.96 769.524 371.96 833.784 371.96C871.164 371.96 889.644 392.54 889.644 419.84C889.644 447.98 869.904 469.82 805.644 480.74L782.124 484.52C771.624 486.2 769.944 495.02 774.564 508.88C783.804 532.4 801.864 549.2 828.744 549.2C845.124 549.2 864.864 542.9 877.044 528.2L882.504 534.08C871.164 548.78 849.744 568.52 815.304 568.52ZM767.424 461.42C767.424 474.44 775.404 476.96 784.644 475.28L800.184 472.76C854.364 463.52 861.504 441.68 861.504 421.1C861.504 397.58 851.004 380.36 827.484 380.36C794.724 380.36 767.424 413.54 767.424 461.42Z" fill="#2D2C2A"/>
<path d="M94.24 755.91C105.26 753.88 111.64 751.85 113.09 741.12L130.49 602.79C131.94 592.06 125.27 590.03 114.54 588L115.41 581.91H174.28L173.41 588C162.1 590.03 155.72 592.06 154.27 602.79L137.16 741.12C135.71 751.85 142.09 753.88 152.82 755.91L152.24 762H93.37L94.24 755.91ZM186.655 630.63C192.745 625.7 199.125 617.29 199.125 612.65C199.415 609.46 198.255 607.72 195.355 607.72C187.525 607.72 182.015 601.63 182.015 593.8C182.015 584.52 189.265 576.98 199.705 576.98C210.435 576.98 215.075 585.68 215.075 594.67C215.075 611.49 203.185 626.86 189.555 634.69L186.655 630.63ZM386.981 763.74C377.121 763.74 368.131 757.65 370.161 743.73L378.281 681.38C382.051 653.54 374.221 643.39 358.851 643.39C341.161 643.39 326.951 662.82 320.571 709.8L313.611 762H293.021L303.461 681.38C306.941 653.54 298.531 643.39 283.451 643.39C265.471 643.39 250.971 667.75 246.331 704.87L238.791 762H218.201L231.831 653.54C233.281 641.65 224.291 639.04 215.301 643.68L216.461 637.88C222.551 631.5 229.801 629.18 236.181 629.18C245.751 629.18 253.291 634.11 253.291 651.51C253.291 673.84 261.411 628.02 295.921 628.02C309.841 628.02 323.181 635.27 325.791 654.12C328.401 672.39 335.941 628.02 370.741 628.02C389.591 628.02 404.381 640.49 399.741 674.13L391.331 738.51C389.591 750.98 398.871 754.46 408.441 749.24L407.281 755.04C400.901 761.42 393.071 763.74 386.981 763.74Z" fill="#2D2C2A"/>
<path d="M476.649 755.91C487.959 753.88 494.629 751.85 495.499 741.12L512.899 602.79C513.769 592.06 508.259 590.03 496.949 588L497.819 581.91H622.809C625.419 581.91 626.869 583.65 626.869 585.97C626.869 594.67 626.579 601.92 629.189 617H623.969C619.039 599.02 609.469 590.03 590.619 590.03H555.529C543.929 590.03 537.839 592.93 536.389 603.66L530.299 653.25C529.139 664.27 534.939 666.3 545.669 666.3H573.509C590.619 666.3 594.969 658.76 598.449 648.32H602.509L596.999 692.69H592.939C592.069 682.54 589.169 674.42 572.349 674.42H544.799C533.489 674.42 527.399 676.74 526.239 687.47L519.569 741.12C518.409 751.85 523.629 753.88 537.549 755.91L536.969 762H475.779L476.649 755.91ZM644.464 653.54C645.914 642.23 636.924 639.04 627.934 643.68L629.094 637.88C635.184 631.5 642.434 629.18 648.814 629.18C658.384 629.18 665.924 634.11 665.924 651.51C665.924 658.47 667.954 658.76 670.854 652.96C676.364 641.94 689.124 628.02 707.394 628.02C718.124 628.02 724.794 633.24 724.794 641.65C724.794 648.61 719.864 655.57 707.974 660.21H707.684C708.264 650.06 703.624 644.26 695.504 644.26C677.524 644.26 663.024 668.04 658.384 706.61L651.424 762H630.834L644.464 653.54ZM773.326 763.74C742.006 763.74 719.096 740.54 719.096 705.45C719.096 671.23 741.426 628.02 786.376 628.02C812.766 628.02 826.106 642.23 826.106 661.37C826.106 681.38 811.606 696.17 768.106 703.42L752.446 706.03C745.196 707.19 743.456 713.57 747.226 722.85C753.316 738.22 765.496 749.24 783.476 749.24C794.786 749.24 807.836 744.89 816.246 735.32L820.306 739.96C812.476 749.82 797.396 763.74 773.326 763.74ZM741.716 689.5C741.716 698.2 747.226 700.23 753.896 699.07L763.466 697.62C800.006 691.53 804.356 675.58 804.356 661.95C804.356 645.42 797.106 634.69 781.736 634.69C759.406 634.69 741.716 657.6 741.716 689.5ZM889.236 763.74C857.916 763.74 835.006 740.54 835.006 705.45C835.006 671.23 857.336 628.02 902.286 628.02C928.676 628.02 942.016 642.23 942.016 661.37C942.016 681.38 927.516 696.17 884.016 703.42L868.356 706.03C861.106 707.19 859.366 713.57 863.136 722.85C869.226 738.22 881.406 749.24 899.386 749.24C910.696 749.24 923.746 744.89 932.156 735.32L936.216 739.96C928.386 749.82 913.306 763.74 889.236 763.74ZM857.626 689.5C857.626 698.2 863.136 700.23 869.806 699.07L879.376 697.62C915.916 691.53 920.266 675.58 920.266 661.95C920.266 645.42 913.016 634.69 897.646 634.69C875.316 634.69 857.626 657.6 857.626 689.5Z" fill="#2D2C2A"/>
<path d="M1.382 851.968C6.8 851.212 10.202 849.196 10.832 844.282L17.51 789.472C18.14 784.558 15.242 782.542 9.95 781.786L10.454 777.754H30.236L66.146 830.548L71.186 789.472C71.816 784.558 68.792 782.542 63.5 781.786L64.004 777.754H87.566L87.062 781.786C81.518 782.542 78.242 784.558 77.612 789.472L69.422 856H63.248L23.054 797.032L17.258 844.282C16.628 849.196 19.652 851.212 24.944 851.968L24.44 856H0.878L1.382 851.968ZM109.363 856.756C95.629 856.756 84.289 847.306 84.289 831.808C84.289 816.436 95.377 797.788 116.041 797.788C128.389 797.788 134.815 804.34 134.815 812.908C134.815 822.232 127.129 828.154 109.993 831.178L104.323 832.186C100.795 832.816 99.787 835.714 101.677 839.62C104.197 844.912 108.859 848.566 115.915 848.566C120.451 848.566 125.365 847.054 129.019 843.274L131.413 846.424C128.011 850.582 120.451 856.756 109.363 856.756ZM98.653 823.996C98.653 827.398 100.543 828.91 104.071 828.406L106.591 828.028C120.829 825.886 121.963 817.696 121.963 812.908C121.963 805.096 118.687 802.324 113.521 802.324C103.945 802.324 98.653 812.404 98.653 823.996ZM146.239 812.152C144.853 806.356 141.199 804.088 136.411 806.482L136.915 802.702C141.199 799.174 145.609 798.292 148.633 798.292C155.437 798.292 158.839 802.828 160.603 810.64L167.659 842.14C168.163 844.156 169.423 844.534 170.683 842.77C177.361 833.446 181.645 824.122 183.913 818.326C188.323 807.112 181.141 804.088 175.471 806.482L175.975 802.702C179.881 799.93 184.039 798.292 187.441 798.292C195.757 798.292 194.749 807.742 191.599 814.798C186.685 825.76 174.715 845.164 163.375 856H156.697L146.239 812.152ZM219.928 856.756C206.194 856.756 194.854 847.306 194.854 831.808C194.854 816.436 205.942 797.788 226.606 797.788C238.954 797.788 245.38 804.34 245.38 812.908C245.38 822.232 237.694 828.154 220.558 831.178L214.888 832.186C211.36 832.816 210.352 835.714 212.242 839.62C214.762 844.912 219.424 848.566 226.48 848.566C231.016 848.566 235.93 847.054 239.584 843.274L241.978 846.424C238.576 850.582 231.016 856.756 219.928 856.756ZM209.218 823.996C209.218 827.398 211.108 828.91 214.636 828.406L217.156 828.028C231.394 825.886 232.528 817.696 232.528 812.908C232.528 805.096 229.252 802.324 224.086 802.324C214.51 802.324 209.218 812.404 209.218 823.996ZM255.751 813.034C256.507 806.608 252.979 804.34 248.191 806.482L248.695 802.702C253.105 799.174 257.389 798.292 260.161 798.292C265.831 798.292 270.115 802.072 270.115 809.128C270.115 812.278 270.871 812.278 272.383 809.758C274.903 805.474 280.825 797.788 289.015 797.788C294.055 797.788 297.457 800.56 297.457 804.844C297.457 808.75 294.307 812.278 287.629 814.798H287.503C287.503 811.018 285.991 807.868 281.833 807.868C274.399 807.868 268.855 817.696 266.965 833.698L264.319 856H250.459L255.751 813.034Z" fill="#2D2C2A"/>
<path d="M305.382 851.968C310.8 851.212 313.95 849.196 314.58 844.282L321.258 789.472C321.888 784.558 319.242 782.542 313.95 781.786L314.454 777.754H371.532C373.17 777.754 373.926 778.636 373.926 780.274C373.926 784.054 374.052 787.582 374.808 794.638H372.036C369.264 786.952 365.736 782.92 358.176 782.92H345.828C340.662 782.92 338.016 785.188 337.512 790.102L335.37 806.86C334.866 811.774 337.008 813.79 342.174 813.79H349.986C358.68 813.79 360.696 811.018 362.208 805.852H364.476L361.956 826.894H359.688C359.31 821.98 357.924 818.956 349.23 818.956H341.418C336.252 818.956 333.732 820.972 333.102 825.886L330.834 844.282C330.204 849.196 332.85 851.212 339.402 851.968L338.898 856H304.878L305.382 851.968ZM380.984 813.034C381.74 806.608 378.212 804.34 373.424 806.482L373.928 802.702C378.338 799.174 382.622 798.292 385.394 798.292C391.064 798.292 395.348 802.072 395.348 809.128C395.348 812.278 396.104 812.278 397.616 809.758C400.136 805.474 406.058 797.788 414.248 797.788C419.288 797.788 422.69 800.56 422.69 804.844C422.69 808.75 419.54 812.278 412.862 814.798H412.736C412.736 811.018 411.224 807.868 407.066 807.868C399.632 807.868 394.088 817.696 392.198 833.698L389.552 856H375.692L380.984 813.034ZM445.39 856.756C431.656 856.756 420.316 847.306 420.316 831.808C420.316 816.436 431.404 797.788 452.068 797.788C464.416 797.788 470.842 804.34 470.842 812.908C470.842 822.232 463.156 828.154 446.02 831.178L440.35 832.186C436.822 832.816 435.814 835.714 437.704 839.62C440.224 844.912 444.886 848.566 451.942 848.566C456.478 848.566 461.392 847.054 465.046 843.274L467.44 846.424C464.038 850.582 456.478 856.756 445.39 856.756ZM434.68 823.996C434.68 827.398 436.57 828.91 440.098 828.406L442.618 828.028C456.856 825.886 457.99 817.696 457.99 812.908C457.99 805.096 454.714 802.324 449.548 802.324C439.972 802.324 434.68 812.404 434.68 823.996ZM498.95 856.756C485.216 856.756 473.876 847.306 473.876 831.808C473.876 816.436 484.964 797.788 505.628 797.788C517.976 797.788 524.402 804.34 524.402 812.908C524.402 822.232 516.716 828.154 499.58 831.178L493.91 832.186C490.382 832.816 489.374 835.714 491.264 839.62C493.784 844.912 498.446 848.566 505.502 848.566C510.038 848.566 514.952 847.054 518.606 843.274L521 846.424C517.598 850.582 510.038 856.756 498.95 856.756ZM488.24 823.996C488.24 827.398 490.13 828.91 493.658 828.406L496.178 828.028C510.416 825.886 511.55 817.696 511.55 812.908C511.55 805.096 508.274 802.324 503.108 802.324C493.532 802.324 488.24 812.404 488.24 823.996Z" fill="#2D2C2A"/>
<path d="M554.534 851.968C562.472 851.212 565.496 849.196 566.126 844.282L572.426 794.764C573.686 784.558 566 782.416 560.078 782.416C555.794 782.416 553.4 783.55 553.4 785.692C553.4 787.834 555.542 789.598 555.542 792.37C555.542 795.772 552.518 797.536 549.368 797.536C545.21 797.536 541.808 794.26 541.808 789.094C541.808 781.786 548.612 777.124 560.33 777.124C575.828 777.124 593.846 785.314 603.422 785.314C606.572 785.314 608.336 784.432 608.336 782.794C608.336 781.156 606.32 780.148 606.32 777.628C606.32 774.982 608.588 773.344 611.486 773.344C615.014 773.344 617.66 775.738 617.66 780.526C617.66 786.7 612.998 790.858 604.556 790.858C600.398 790.858 596.24 789.85 589.31 788.464L582.38 844.282C581.75 849.196 584.396 851.212 592.208 851.968L591.704 856H554.03L554.534 851.968ZM628.108 856.756C613.618 856.756 602.908 847.18 602.908 831.556C602.908 814.798 615.256 797.788 634.156 797.788C648.646 797.788 659.482 807.364 659.482 822.988C659.482 839.746 647.008 856.756 628.108 856.756ZM618.28 828.532C618.28 841.258 622.06 852.22 630.628 852.22C640.834 852.22 643.984 837.73 643.984 826.012C643.984 813.286 640.204 802.324 631.636 802.324C621.43 802.324 618.28 816.814 618.28 828.532Z" fill="#2D2C2A"/>
<path d="M671.382 851.968C676.8 851.212 679.95 849.196 680.58 844.282L687.258 789.472C687.888 784.558 685.242 782.542 679.95 781.786L680.454 777.754H719.514C736.02 777.754 746.352 784.306 746.352 796.15C746.352 808.12 738.162 816.688 725.562 818.452C724.68 818.578 724.554 819.712 725.31 819.964C732.24 822.232 735.516 826.264 737.658 835.966C739.548 844.282 740.808 851.842 746.478 851.842L745.848 856H739.422C725.814 856 722.79 849.448 719.136 834.58C716.868 825.004 713.844 821.728 706.662 821.728C701.244 821.728 699.228 823.87 698.724 828.658L696.834 844.282C696.204 849.196 698.85 851.212 705.402 851.968L704.898 856H670.878L671.382 851.968ZM701.118 809.002C700.488 813.916 702 816.058 706.914 816.058H712.206C723.294 816.058 729.594 807.616 729.594 796.402C729.594 789.094 726.57 782.92 717.498 782.92H711.954C705.906 782.92 704.142 785.44 703.512 789.976L701.118 809.002ZM774.441 856.756C760.707 856.756 749.367 847.306 749.367 831.808C749.367 816.436 760.455 797.788 781.119 797.788C793.467 797.788 799.893 804.34 799.893 812.908C799.893 822.232 792.207 828.154 775.071 831.178L769.401 832.186C765.873 832.816 764.865 835.714 766.755 839.62C769.275 844.912 773.937 848.566 780.993 848.566C785.529 848.566 790.443 847.054 794.097 843.274L796.491 846.424C793.089 850.582 785.529 856.756 774.441 856.756ZM763.731 823.996C763.731 827.398 765.621 828.91 769.149 828.406L771.669 828.028C785.907 825.886 787.041 817.696 787.041 812.908C787.041 805.096 783.765 802.324 778.599 802.324C769.023 802.324 763.731 812.404 763.731 823.996ZM820.204 856.756C806.596 856.756 800.17 849.322 800.17 842.392C800.17 839.368 801.43 835.336 806.092 835.336C810.88 835.336 810.628 837.982 810.628 840.88C810.628 848.314 814.534 853.102 820.96 853.102C828.52 853.102 830.41 847.558 830.41 844.282C830.41 834.202 804.958 830.17 804.958 813.412C804.958 804.592 812.77 797.788 825.874 797.788C839.734 797.788 844.9 805.474 844.9 811.774C844.9 816.31 842.128 817.822 838.726 817.822C834.82 817.822 834.19 815.302 834.19 813.412C834.19 806.608 831.67 801.316 825.496 801.316C819.826 801.316 818.314 805.474 818.314 808.624C818.314 820.594 844.396 822.988 844.396 839.242C844.396 848.44 834.946 856.756 820.204 856.756ZM867.157 856.63C857.581 856.63 852.037 851.086 853.423 839.62L857.203 808.876C857.707 804.97 856.573 804.214 854.305 804.214H848.887L849.391 800.686C857.959 798.166 863.125 794.008 867.283 786.952C868.039 785.692 868.795 785.314 869.929 785.314H871.567C872.953 785.314 873.583 786.196 873.457 787.582L872.449 795.772C872.071 798.418 873.079 799.174 878.623 799.174H886.813L886.183 804.97L878.119 804.466C872.449 804.088 871.441 805.222 870.937 809.128L867.535 838.612C866.653 845.794 867.283 850.456 872.323 850.456C874.213 850.456 877.111 849.826 879.379 848.188L880.891 851.086C877.867 854.362 873.205 856.63 867.157 856.63Z" fill="#2D2C2A"/>
<path d="M214.266 927.784C215.9 927.556 216.85 926.948 217.04 925.466L219.054 908.936C219.244 907.454 218.446 906.846 216.85 906.618L217.002 905.402H234.216C234.71 905.402 234.938 905.668 234.938 906.162C234.938 907.302 234.976 908.366 235.204 910.494H234.368C233.532 908.176 232.468 906.96 230.188 906.96H226.464C224.906 906.96 224.146 907.644 223.956 909.126L223.31 914.18C223.12 915.662 223.804 916.27 225.362 916.27H227.718C230.34 916.27 230.948 915.434 231.48 913.496H232.164L231.29 920.602H230.606C230.53 918.74 230.112 917.828 227.49 917.828H225.134C223.576 917.828 222.816 918.436 222.626 919.918L221.942 925.314C221.752 926.758 222.398 927.48 224.222 927.48H228.25C231.024 927.48 231.556 926.796 233.608 923.984H234.444C233.722 925.58 233.152 927.176 232.848 928.354C232.734 928.772 232.43 929 231.974 929H214.114L214.266 927.784ZM251.248 929.228C249.538 929.228 248.056 927.974 248.36 925.656L249.196 919.538C249.652 916.08 249.158 914.446 247.068 914.446C244.218 914.446 242.318 917.448 241.634 922.996L240.912 929H236.732L238.328 916.042C238.556 914.104 237.492 913.42 236.048 914.066L236.2 912.926C237.53 911.862 238.822 911.596 239.658 911.596C241.368 911.596 242.66 912.736 242.66 914.864C242.66 917.372 244.522 911.444 249.424 911.444C251.818 911.444 254.174 912.85 253.49 918.246L252.616 925.086C252.388 926.758 253.566 927.404 254.82 926.758L254.63 927.898C253.49 928.962 252.008 929.228 251.248 929.228ZM265.085 909.088C265.389 906.58 264.743 905.972 262.881 905.972L263.033 904.794C265.731 904.794 267.821 904.566 269.911 904.034L268.695 913.458C268.315 916.308 272.115 911.444 275.649 911.444C277.359 911.444 278.651 912.546 278.651 914.256C278.651 916.422 276.751 918.132 273.179 919.728C272.495 920.032 272.533 920.412 272.951 920.906L276.143 924.896C277.359 926.416 278.347 927.708 279.867 927.86L279.715 929H274.775L268.087 920.64C272.723 918.968 274.775 917.372 274.775 915.662C274.775 914.636 273.977 913.99 272.837 913.99C270.367 913.99 268.353 917.03 267.973 919.5L266.757 929H262.539L265.085 909.088ZM287.573 929.228C283.203 929.228 279.973 926.34 279.973 921.628C279.973 916.574 283.697 911.444 289.397 911.444C293.767 911.444 297.035 914.332 297.035 919.044C297.035 924.098 293.273 929.228 287.573 929.228ZM284.609 920.716C284.609 924.554 285.749 927.86 288.333 927.86C291.411 927.86 292.361 923.49 292.361 919.956C292.361 916.118 291.221 912.812 288.637 912.812C285.559 912.812 284.609 917.182 284.609 920.716ZM300.417 916.042C300.645 914.104 299.581 913.42 298.137 914.066L298.289 912.926C299.619 911.862 300.911 911.596 301.747 911.596C303.457 911.596 304.749 912.736 304.749 914.864C304.749 915.814 304.977 915.814 305.433 915.054C306.193 913.762 307.979 911.444 310.449 911.444C311.969 911.444 312.995 912.28 312.995 913.572C312.995 914.75 312.045 915.814 310.031 916.574H309.993C309.993 915.434 309.537 914.484 308.283 914.484C306.041 914.484 304.369 917.448 303.799 922.274L303.001 929H298.821L300.417 916.042ZM319.841 929.228C315.699 929.228 312.279 926.378 312.279 921.704C312.279 917.068 315.623 911.444 321.855 911.444C325.579 911.444 327.517 913.42 327.517 916.004C327.517 918.816 325.199 920.602 320.031 921.514L318.321 921.818C317.257 922.008 316.953 922.882 317.523 924.06C318.283 925.656 319.689 926.758 321.817 926.758C323.185 926.758 324.667 926.302 325.769 925.162L326.491 926.112C325.465 927.366 323.185 929.228 319.841 929.228ZM316.611 919.348C316.611 920.374 317.181 920.83 318.245 920.678L319.005 920.564C323.299 919.918 323.641 917.448 323.641 916.004C323.641 913.648 322.653 912.812 321.095 912.812C318.207 912.812 316.611 915.852 316.611 919.348ZM336.032 929.228C331.662 929.228 328.432 926.34 328.432 921.628C328.432 916.574 332.156 911.444 337.856 911.444C342.226 911.444 345.494 914.332 345.494 919.044C345.494 924.098 341.732 929.228 336.032 929.228ZM333.068 920.716C333.068 924.554 334.208 927.86 336.792 927.86C339.87 927.86 340.82 923.49 340.82 919.956C340.82 916.118 339.68 912.812 337.096 912.812C334.018 912.812 333.068 917.182 333.068 920.716ZM351.569 936.6C348.149 936.6 345.489 935.27 345.489 932.876C345.489 931.432 346.477 930.71 347.541 930.71C348.529 930.71 349.365 931.318 349.479 932.496C349.631 934.244 349.859 935.232 351.835 935.232C354.989 935.232 357.421 932.762 357.877 928.506L357.991 927.442C358.067 926.796 357.801 926.72 357.193 927.328C355.825 928.696 354.115 929.228 352.519 929.228C349.365 929.228 346.439 927.1 346.439 922.236C346.439 916.422 350.695 911.52 356.319 911.52C358.675 911.52 360.043 912.394 361.563 912.394C362.741 912.394 362.969 911.862 363.463 911.862C363.843 911.862 364.033 912.166 363.995 912.546L362.057 928.012C361.297 934.13 356.243 936.6 351.569 936.6ZM351.113 921.286C351.113 924.972 352.595 926.758 354.609 926.758C356.395 926.758 358.333 925.352 358.865 920.64L359.093 918.626C359.587 914.37 358.219 912.964 356.319 912.964C353.051 912.964 351.113 917.22 351.113 921.286ZM367.441 916.042C367.669 914.104 366.605 913.42 365.161 914.066L365.313 912.926C366.643 911.862 367.935 911.596 368.771 911.596C370.481 911.596 371.773 912.736 371.773 914.864C371.773 915.814 372.001 915.814 372.457 915.054C373.217 913.762 375.003 911.444 377.473 911.444C378.993 911.444 380.019 912.28 380.019 913.572C380.019 914.75 379.069 915.814 377.055 916.574H377.017C377.017 915.434 376.561 914.484 375.307 914.484C373.065 914.484 371.393 917.448 370.823 922.274L370.025 929H365.845L367.441 916.042ZM385.383 929.228C382.191 929.228 379.265 927.1 379.265 922.236C379.265 916.384 383.521 911.52 389.107 911.52C391.501 911.52 392.869 912.394 394.389 912.394C395.567 912.394 395.795 911.862 396.289 911.862C396.669 911.862 396.859 912.166 396.821 912.546L395.263 925.162C395.073 926.72 396.175 927.404 397.429 926.758L397.239 927.898C396.175 928.962 394.921 929.228 394.047 929.228C392.527 929.228 391.425 928.43 391.045 927.366C390.855 926.834 390.665 926.682 390.019 927.328C388.651 928.696 386.979 929.228 385.383 929.228ZM383.939 921.286C383.939 924.972 385.421 926.758 387.435 926.758C389.221 926.758 391.159 925.352 391.691 920.64L391.919 918.626C392.413 914.37 391.045 912.964 389.145 912.964C385.877 912.964 383.939 917.106 383.939 921.286ZM416.462 929.228C414.752 929.228 413.308 928.012 413.65 925.656L415.018 916.042C415.284 914.104 414.182 913.42 412.738 914.066L412.89 912.926C414.182 911.862 415.474 911.596 416.348 911.596C418.21 911.596 419.616 912.85 419.274 915.168L417.868 925.162C417.64 926.72 418.78 927.404 420.034 926.758L419.844 927.898C418.704 928.962 417.222 929.228 416.462 929.228ZM392.218 933.712C392.218 932.572 392.902 931.736 394.27 931.736C397.12 931.736 395.41 935.308 397.5 935.308C399.324 935.308 399.704 932.496 400.084 929.57L401.908 914.978C402.06 913.876 401.794 913.648 401.11 913.648H399.248L399.4 912.584C401.224 912.28 402.25 911.976 402.402 910.722C403.01 905.744 406.088 903.084 410.306 903.084C412.662 903.084 414.524 903.92 414.524 905.934C414.524 907.112 413.878 908.062 412.396 908.062C409.508 908.062 410.8 904.376 408.786 904.376C407.57 904.376 407.19 905.63 406.886 908.328L406.62 910.836C406.506 911.824 406.848 912.052 408.558 912.052H410.99L410.8 913.724L408.368 913.648C406.696 913.61 406.278 913.876 406.126 915.054L404.34 929.494C403.77 934.206 400.54 936.6 396.588 936.6C394.004 936.6 392.218 935.574 392.218 933.712ZM433.062 929.228C429.87 929.228 426.944 927.1 426.944 922.236C426.944 916.384 431.2 911.52 436.786 911.52C439.18 911.52 440.548 912.394 442.068 912.394C443.246 912.394 443.474 911.862 443.968 911.862C444.348 911.862 444.538 912.166 444.5 912.546L442.942 925.162C442.752 926.72 443.854 927.404 445.108 926.758L444.918 927.898C443.854 928.962 442.6 929.228 441.726 929.228C440.206 929.228 439.104 928.43 438.724 927.366C438.534 926.834 438.344 926.682 437.698 927.328C436.33 928.696 434.658 929.228 433.062 929.228ZM431.618 921.286C431.618 924.972 433.1 926.758 435.114 926.758C436.9 926.758 438.838 925.352 439.37 920.64L439.598 918.626C440.092 914.37 438.724 912.964 436.824 912.964C433.556 912.964 431.618 917.106 431.618 921.286ZM444.268 936.6C441.684 936.6 439.898 935.574 439.898 933.712C439.898 932.572 440.582 931.736 441.95 931.736C444.8 931.736 443.09 935.308 445.18 935.308C447.004 935.308 447.384 932.496 447.764 929.57L449.588 914.978C449.74 913.876 449.474 913.648 448.79 913.648H446.928L447.08 912.584C448.904 912.28 449.93 911.976 450.082 910.722C450.69 905.744 453.768 903.084 457.986 903.084C460.342 903.084 462.204 903.92 462.204 905.934C462.204 907.112 461.558 908.062 460.076 908.062C457.188 908.062 458.48 904.376 456.466 904.376C455.25 904.376 454.87 905.63 454.566 908.328L454.3 910.836C454.186 911.824 454.528 912.052 456.238 912.052H458.67L458.48 913.724L456.048 913.648C454.376 913.61 453.958 913.876 453.806 915.054L452.02 929.494C451.45 934.206 448.22 936.6 444.268 936.6ZM465.069 927.784C466.703 927.556 467.653 926.948 467.843 925.466L469.857 908.936C470.047 907.454 469.249 906.846 467.653 906.618L467.805 905.402H477.685L477.533 906.618C475.899 906.846 474.949 907.454 474.759 908.936L473.961 915.548C473.885 916.308 474.531 916.612 475.481 916.612H481.675C482.625 916.612 483.385 916.346 483.461 915.586L484.259 908.936C484.449 907.454 483.651 906.846 482.055 906.618L482.207 905.402H492.087L491.935 906.618C490.301 906.846 489.351 907.454 489.161 908.936L487.147 925.466C486.957 926.948 487.755 927.556 489.351 927.784L489.199 929H479.319L479.471 927.784C481.105 927.556 482.055 926.948 482.245 925.466L483.005 919.234C483.119 918.436 482.435 918.132 481.523 918.132H475.253C474.341 918.132 473.581 918.436 473.505 919.196L472.745 925.466C472.555 926.948 473.353 927.556 474.949 927.784L474.797 929H464.917L465.069 927.784ZM498.749 929.228C494.379 929.228 491.149 926.34 491.149 921.628C491.149 916.574 494.873 911.444 500.573 911.444C504.943 911.444 508.211 914.332 508.211 919.044C508.211 924.098 504.449 929.228 498.749 929.228ZM495.785 920.716C495.785 924.554 496.925 927.86 499.509 927.86C502.587 927.86 503.537 923.49 503.537 919.956C503.537 916.118 502.397 912.812 499.813 912.812C496.735 912.812 495.785 917.182 495.785 920.716ZM517.165 929.228C512.795 929.228 509.565 926.34 509.565 921.628C509.565 916.574 513.289 911.444 518.989 911.444C523.359 911.444 526.627 914.332 526.627 919.044C526.627 924.098 522.865 929.228 517.165 929.228ZM514.201 920.716C514.201 924.554 515.341 927.86 517.925 927.86C521.003 927.86 521.953 923.49 521.953 919.956C521.953 916.118 520.813 912.812 518.229 912.812C515.151 912.812 514.201 917.182 514.201 920.716ZM552.809 929.228C551.099 929.228 549.617 927.974 549.921 925.656L550.757 919.538C551.213 916.08 550.833 914.446 548.515 914.446C546.273 914.446 544.563 917.258 543.917 922.73L543.157 929H538.977L540.193 919.538C540.649 916.08 540.231 914.446 537.913 914.446C535.595 914.446 533.999 917.41 533.315 922.996L532.593 929H528.413L530.009 916.042C530.237 914.104 529.173 913.42 527.729 914.066L527.881 912.926C529.211 911.862 530.503 911.596 531.339 911.596C533.049 911.596 534.341 912.736 534.341 914.864C534.341 917.486 535.823 911.444 540.497 911.444C542.169 911.444 543.841 912.204 544.373 914.864C544.981 918.018 546.007 911.444 551.023 911.444C553.341 911.444 555.735 912.85 555.051 918.246L554.177 925.086C553.949 926.758 555.127 927.404 556.381 926.758L556.191 927.898C555.051 928.962 553.569 929.228 552.809 929.228ZM563.537 929.228C560.345 929.228 557.419 927.1 557.419 922.236C557.419 916.384 561.675 911.52 567.261 911.52C569.655 911.52 571.023 912.394 572.543 912.394C573.721 912.394 573.949 911.862 574.443 911.862C574.823 911.862 575.013 912.166 574.975 912.546L573.417 925.162C573.227 926.72 574.329 927.404 575.583 926.758L575.393 927.898C574.329 928.962 573.075 929.228 572.201 929.228C570.681 929.228 569.579 928.43 569.199 927.366C569.009 926.834 568.819 926.682 568.173 927.328C566.805 928.696 565.133 929.228 563.537 929.228ZM562.093 921.286C562.093 924.972 563.575 926.758 565.589 926.758C567.375 926.758 569.313 925.352 569.845 920.64L570.073 918.626C570.567 914.37 569.199 912.964 567.299 912.964C564.031 912.964 562.093 917.106 562.093 921.286ZM592.343 929.228C590.633 929.228 589.151 927.974 589.455 925.656L590.291 919.538C590.747 916.08 590.253 914.446 588.163 914.446C585.313 914.446 583.413 917.448 582.729 922.996L582.007 929H577.827L579.423 916.042C579.651 914.104 578.587 913.42 577.143 914.066L577.295 912.926C578.625 911.862 579.917 911.596 580.753 911.596C582.463 911.596 583.755 912.736 583.755 914.864C583.755 917.372 585.617 911.444 590.519 911.444C592.913 911.444 595.269 912.85 594.585 918.246L593.711 925.086C593.483 926.758 594.661 927.404 595.915 926.758L595.725 927.898C594.585 928.962 593.103 929.228 592.343 929.228ZM610.891 929.38C607.699 929.38 604.887 928.354 603.405 927.1C602.683 924.402 602.987 921.02 604.659 921.02C605.077 921.02 605.191 921.21 605.343 921.856C606.217 925.618 608.763 927.708 611.765 927.708C614.577 927.708 616.135 926.074 616.135 923.946C616.135 921.21 613.551 920.298 610.701 919.348C607.281 918.208 604.393 916.118 604.393 912.356C604.393 907.758 608.573 904.794 613.855 904.794C616.439 904.794 619.289 905.554 620.657 906.694C621.341 909.392 621.037 912.774 619.403 912.774C618.947 912.774 618.795 912.584 618.681 911.938C618.035 908.252 615.375 906.39 612.867 906.39C610.473 906.39 608.877 908.1 608.877 910.304C608.877 912.736 610.777 913.762 613.475 914.674C616.705 915.776 620.999 917.258 620.999 921.894C620.999 926.91 616.173 929.38 610.891 929.38ZM637.791 929.228C636.081 929.228 634.599 927.974 634.903 925.656L635.739 919.538C636.195 916.08 635.701 914.446 633.611 914.446C630.761 914.446 628.861 917.41 628.177 922.996L627.455 929H623.275L625.783 909.088C626.087 906.58 625.441 905.972 623.579 905.972L623.731 904.794C626.429 904.794 628.481 904.566 630.571 904.034L629.203 914.864C628.861 917.448 631.255 911.444 636.043 911.444C638.361 911.444 640.717 912.85 640.033 918.246L639.159 925.086C638.931 926.758 640.109 927.404 641.363 926.758L641.173 927.898C640.033 928.962 638.551 929.228 637.791 929.228ZM648.496 929.228C645.304 929.228 642.378 927.1 642.378 922.236C642.378 916.384 646.634 911.52 652.22 911.52C654.614 911.52 655.982 912.394 657.502 912.394C658.68 912.394 658.908 911.862 659.402 911.862C659.782 911.862 659.972 912.166 659.934 912.546L658.376 925.162C658.186 926.72 659.288 927.404 660.542 926.758L660.352 927.898C659.288 928.962 658.034 929.228 657.16 929.228C655.64 929.228 654.538 928.43 654.158 927.366C653.968 926.834 653.778 926.682 653.132 927.328C651.764 928.696 650.092 929.228 648.496 929.228ZM647.052 921.286C647.052 924.972 648.534 926.758 650.548 926.758C652.334 926.758 654.272 925.352 654.804 920.64L655.032 918.626C655.526 914.37 654.158 912.964 652.258 912.964C648.99 912.964 647.052 917.106 647.052 921.286ZM664.381 916.042C664.609 914.104 663.545 913.42 662.101 914.066L662.253 912.926C663.583 911.862 664.875 911.596 665.711 911.596C667.421 911.596 668.713 912.736 668.713 914.864C668.713 915.814 668.941 915.814 669.397 915.054C670.157 913.762 671.943 911.444 674.413 911.444C675.933 911.444 676.959 912.28 676.959 913.572C676.959 914.75 676.009 915.814 673.995 916.574H673.957C673.957 915.434 673.501 914.484 672.247 914.484C670.005 914.484 668.333 917.448 667.763 922.274L666.965 929H662.785L664.381 916.042ZM681.013 929.228C679.303 929.228 677.859 928.012 678.201 925.656L679.569 916.042C679.835 914.104 678.733 913.42 677.289 914.066L677.441 912.926C678.733 911.862 680.025 911.596 680.899 911.596C682.761 911.596 684.167 912.85 683.825 915.168L682.419 925.162C682.191 926.72 683.331 927.404 684.585 926.758L684.395 927.898C683.255 928.962 681.773 929.228 681.013 929.228ZM679.569 906.238C679.569 904.718 680.785 903.578 682.267 903.578C683.711 903.578 684.927 904.718 684.927 906.238C684.927 907.758 683.711 908.898 682.267 908.898C680.785 908.898 679.569 907.758 679.569 906.238ZM703.049 929.228C701.339 929.228 699.895 928.012 700.237 925.656L701.605 916.042C701.871 914.104 700.769 913.42 699.325 914.066L699.477 912.926C700.769 911.862 702.061 911.596 702.935 911.596C704.797 911.596 706.203 912.85 705.861 915.168L704.455 925.162C704.227 926.72 705.367 927.404 706.621 926.758L706.431 927.898C705.291 928.962 703.809 929.228 703.049 929.228ZM678.805 933.712C678.805 932.572 679.489 931.736 680.857 931.736C683.707 931.736 681.997 935.308 684.087 935.308C685.911 935.308 686.291 932.496 686.671 929.57L688.495 914.978C688.647 913.876 688.381 913.648 687.697 913.648H685.835L685.987 912.584C687.811 912.28 688.837 911.976 688.989 910.722C689.597 905.744 692.675 903.084 696.893 903.084C699.249 903.084 701.111 903.92 701.111 905.934C701.111 907.112 700.465 908.062 698.983 908.062C696.095 908.062 697.387 904.376 695.373 904.376C694.157 904.376 693.777 905.63 693.473 908.328L693.207 910.836C693.093 911.824 693.435 912.052 695.145 912.052H697.577L697.387 913.724L694.955 913.648C693.283 913.61 692.865 913.876 692.713 915.054L690.927 929.494C690.357 934.206 687.127 936.6 683.175 936.6C680.591 936.6 678.805 935.574 678.805 933.712Z" fill="black" fill-opacity="0.33"/>
</svg>
