<?xml version="1.0" encoding="UTF-8"?><svg id="Layer_1" xmlns="http://www.w3.org/2000/svg" width="2586.66" height="1186.56" xmlns:xlink="http://www.w3.org/1999/xlink" viewBox="0 0 2586.66 1186.56"><defs><style>.cls-1{fill:url(#linear-gradient);}.cls-1,.cls-2,.cls-3,.cls-4,.cls-5,.cls-6,.cls-7,.cls-8,.cls-9,.cls-10,.cls-11,.cls-12,.cls-13,.cls-14,.cls-15,.cls-16,.cls-17,.cls-18,.cls-19,.cls-20{stroke-width:0px;}.cls-2{fill:url(#linear-gradient-11);}.cls-3{fill:url(#linear-gradient-12);}.cls-4{fill:url(#linear-gradient-13);}.cls-5{fill:url(#linear-gradient-10);}.cls-6{fill:url(#linear-gradient-17);}.cls-7{fill:url(#linear-gradient-16);}.cls-8{fill:url(#linear-gradient-19);}.cls-9{fill:url(#linear-gradient-15);}.cls-10{fill:url(#linear-gradient-18);}.cls-11{fill:url(#linear-gradient-14);}.cls-12{fill:url(#linear-gradient-20);}.cls-13{fill:url(#linear-gradient-4);}.cls-14{fill:url(#linear-gradient-2);}.cls-15{fill:url(#linear-gradient-3);}.cls-16{fill:url(#linear-gradient-8);}.cls-17{fill:url(#linear-gradient-9);}.cls-18{fill:url(#linear-gradient-7);}.cls-19{fill:url(#linear-gradient-5);}.cls-20{fill:url(#linear-gradient-6);}</style><linearGradient id="linear-gradient" x1="2411.3" y1="722.73" x2="2188.58" y2="457.31" gradientTransform="translate(-24.98 25.45) rotate(-3.63) scale(1.07) skewX(-7.21)" gradientUnits="userSpaceOnUse"><stop offset="0" stop-color="#fdfefe"/><stop offset="1" stop-color="#f1f2f2"/></linearGradient><linearGradient id="linear-gradient-2" x1="2801.73" y1="1108.85" x2="2612.24" y2="883.03" gradientTransform="matrix(1,0,0,1,0,0)" xlink:href="#linear-gradient"/><linearGradient id="linear-gradient-3" x1="2972.87" y1="862.62" x2="2750.16" y2="597.2" xlink:href="#linear-gradient"/><linearGradient id="linear-gradient-4" x1="2891.16" y1="720.01" x2="2669.09" y2="455.36" gradientTransform="matrix(1,0,0,1,0,0)" xlink:href="#linear-gradient"/><linearGradient id="linear-gradient-5" x1="2175.4" y1="758.26" x2="1953.33" y2="493.6" gradientTransform="matrix(1,0,0,1,0,0)" xlink:href="#linear-gradient"/><linearGradient id="linear-gradient-6" x1="2579.11" y1="793.17" x2="2357.05" y2="528.51" gradientTransform="matrix(1,0,0,1,0,0)" xlink:href="#linear-gradient"/><linearGradient id="linear-gradient-7" x1="2206.91" y1="499.16" x2="2053.02" y2="315.77" gradientTransform="translate(-563.8 437.09) rotate(-7.98) scale(1.23 1.1) skewX(-14.84)" xlink:href="#linear-gradient"/><linearGradient id="linear-gradient-8" x1="2007.44" y1="610.98" x2="2180.52" y2="816.52" gradientTransform="translate(4187.98 970.31) rotate(169.7) scale(1.29 1.14) skewX(-18.84)" xlink:href="#linear-gradient"/><linearGradient id="linear-gradient-9" x1="1429.39" y1="864.8" x2="1207.33" y2="600.15" gradientTransform="matrix(1,0,0,1,0,0)" xlink:href="#linear-gradient"/><linearGradient id="linear-gradient-10" x1="1205.9" y1="768.37" x2="995.9" y2="518.1" gradientTransform="translate(9.31 -8.85) rotate(-.44) skewX(-.88)" xlink:href="#linear-gradient"/><linearGradient id="linear-gradient-11" x1="1165.9" y1="730.51" x2="923.85" y2="442.05" gradientTransform="matrix(1,0,0,1,0,0)" xlink:href="#linear-gradient"/><linearGradient id="linear-gradient-12" x1="1284.82" y1="879.21" x2="1031.11" y2="576.86" gradientTransform="translate(230.27 242.18) rotate(-6.71) scale(.91 .87) skewX(-12.99)" xlink:href="#linear-gradient"/><linearGradient id="linear-gradient-13" x1="975.96" y1="656.1" x2="768.82" y2="409.24" gradientTransform="matrix(1,0,0,1,0,0)" xlink:href="#linear-gradient"/><linearGradient id="linear-gradient-14" x1="858.09" y1="627.03" x2="664.21" y2="395.96" gradientTransform="matrix(1,0,0,1,0,0)" xlink:href="#linear-gradient"/><linearGradient id="linear-gradient-15" x1="778.63" y1="537.48" x2="613.06" y2="340.15" gradientTransform="matrix(1,0,0,1,0,0)" xlink:href="#linear-gradient"/><linearGradient id="linear-gradient-16" x1="493.3" y1="482.4" x2="290" y2="240.11" gradientTransform="matrix(1,0,0,1,0,0)" xlink:href="#linear-gradient"/><linearGradient id="linear-gradient-17" x1="224.93" y1="277.9" x2="-181.68" y2="-206.69" gradientTransform="translate(74.25 86.8) rotate(-11.59) scale(.87 .74) skewX(-20.86)" xlink:href="#linear-gradient"/><linearGradient id="linear-gradient-18" x1="390.54" y1="364.75" x2="202.66" y2="140.83" gradientTransform="matrix(1,0,0,1,0,0)" xlink:href="#linear-gradient"/><linearGradient id="linear-gradient-19" x1="608.25" y1="545.31" x2="421.91" y2="323.24" gradientTransform="matrix(1,0,0,1,0,0)" xlink:href="#linear-gradient"/><linearGradient id="linear-gradient-20" x1="196.09" y1="202.7" x2="-106.96" y2="-158.45" gradientTransform="translate(23.69 31.24) rotate(-5.85) scale(.93 .86) skewX(-11.15)" xlink:href="#linear-gradient"/></defs><path class="cls-1" d="M1728.57,1171.42c857.66-652.45,927.69-588.13,1656.56-1381.86,87.84-95.65-162.62-48.11-265.98,30.52-877.19,667.31-963.54,576.46-1741.23,1357.47-114.98,115.47,213.4,98.27,350.64-6.13Z"/><path class="cls-14" d="M2298.54,1442.66c126.18-86.49,164.81-38.78,275.67-144.19,110.86-105.41,51.6-167.73,162.47-273.14,110.87-105.42,170.13-43.09,280.99-148.51s63.5-148.64,158.37-268.66c13.72-17.36,32.55-21.68,12.63-31.32s-57.39,67.77-77.31,58.12c-19.92-9.64,17.55-87.05-2.38-96.7s-16.01,42.37-34.27,54.88c-117.44,80.5-158.69,28.29-264.18,123.91-105.5,95.62-47.74,159.34-153.24,254.96-105.5,95.62-163.26,31.9-268.76,127.52-105.5,95.62-60.09,138.07-148.39,249.77-15.06,19.05-53.6,18.54-39.04,37.98,14.55,19.43,83.39-32.12,97.95-12.68s-52.89,51.42-47.04,74.99c2.66,10.72,26.51,6.79,46.54-6.94Z"/><path class="cls-15" d="M2317.95,1282.97c857.66-652.45,927.69-588.13,1656.56-1381.86,87.84-95.65-162.62-48.11-265.98,30.52-877.19,667.31-963.54,576.46-1741.23,1357.47-114.98,115.47,213.4,98.27,350.64-6.13Z"/><path class="cls-13" d="M2095.79,1302.42c242.04-175.85,275.99-134.02,497.86-334.72,221.88-200.7,164.18-264.48,386.06-465.18,221.88-200.7,279.57-136.92,501.45-337.63s179.85-243.27,383.39-462.55c27.47-29.6-13.75-8.57-53.85-3.71s-29.73,90.24-69.83,95.1c-40.09,4.86-50.45-80.51-90.55-75.65s-17.06,63.46-49.73,87.2c-256.19,186.13-296.82,133.72-540.98,335.37-244.16,201.66-189.4,267.97-433.56,469.62-244.16,201.66-298.93,135.35-543.09,337.01s-213.99,233.63-429.42,465.72c-42.62,45.92,34.86,7.74,97.24,1.92,62.38-5.82,54.39-91.45,116.76-97.27,62.38-5.82,71.79,81.47,133.98,73.85,54.83-6.71,43.57-52.29,94.26-89.11Z"/><path class="cls-19" d="M1380.03,1340.66c242.04-175.85,275.99-134.02,497.86-334.72,221.88-200.7,164.18-264.48,386.06-465.18,221.88-200.7,279.57-136.92,501.45-337.63s179.85-243.27,383.39-462.55c27.47-29.6-13.75-8.57-53.85-3.71s-29.73,90.24-69.83,95.1c-40.09,4.86-50.45-80.51-90.55-75.65s-17.06,63.46-49.73,87.2c-256.19,186.13-296.82,133.72-540.98,335.37-244.16,201.66-189.4,267.97-433.56,469.62-244.16,201.66-298.93,135.35-543.09,337.01s-213.99,233.63-429.42,465.72c-42.62,45.92,34.86,7.74,97.24,1.92,62.38-5.82,54.39-91.45,116.76-97.27,62.38-5.82,71.79,81.47,133.98,73.85,54.83-6.71,43.57-52.29,94.26-89.11Z"/><path class="cls-20" d="M1783.74,1375.57c242.04-175.85,275.99-134.02,497.86-334.72,221.88-200.7,164.18-264.48,386.06-465.18,221.88-200.7,279.57-136.92,501.45-337.63s179.85-243.27,383.39-462.55c27.47-29.6-13.75-8.57-53.85-3.71-40.09,4.86-29.73,90.24-69.83,95.1-40.09,4.86-50.45-80.51-90.55-75.65s-17.06,63.46-49.73,87.2c-256.19,186.13-296.82,133.72-540.98,335.37-244.16,201.66-189.4,267.97-433.56,469.62-244.16,201.66-298.93,135.35-543.09,337.01s-213.99,233.63-429.42,465.72c-42.62,45.92,34.86,7.74,97.24,1.92,62.38-5.82,54.39-91.45,116.76-97.27,62.38-5.82,71.79,81.47,133.98,73.85,54.83-6.71,43.57-52.29,94.26-89.11Z"/><path class="cls-18" d="M1074.52,1312.84c251.09-176.78,276.82-142.56,516.4-334.65,239.58-192.09,200.8-240.46,440.38-432.56,239.58-192.09,278.36-143.72,517.95-335.82s214.71-220.74,438.55-430.97c36.08-33.88-34.37,4.69-82.35,16.84-47.98,12.15-32.77,72.25-80.75,84.4-47.99,12.15-63.2-47.96-111.19-35.81s-30.04,51.2-70.52,79.7c-223.07,157.05-249.71,121.7-462.13,292.89-212.42,171.19-173.52,219.46-385.94,390.65-212.42,171.19-251.33,122.92-463.75,294.11s-185.31,202.35-384.17,389.11c-16.47,15.46-12.42,14.74,8.41,23.49,20.82,8.76,44.86-48.4,65.68-39.64,20.83,8.76-4.19,64.18,16.15,74.01,11.78,5.69,18.81-22.74,37.28-35.75Z"/><path class="cls-16" d="M2483.97-170.31c-310.76,229.43-332.19,202.47-625.83,453.45-293.64,250.98-253.36,298.11-547,549.09s-364.95,176.09-629.97,457.12c-44.98,47.7,83.52-18.01,148.53-26.55s73.09,52.93,138.1,44.39,54.82-33.81,107.57-72.76c281.45-207.79,300.45-184.37,561.88-416.84,261.44-232.47,220.24-278.8,481.67-511.27,261.44-232.47,326-165.99,566.02-420.51,23.52-24.94-64.37-1.57-97.17-11.54-32.81-9.97-13.06-65.12-44.74-78.24-23.43-9.7-31.48,13.28-59.06,33.65Z"/><path class="cls-17" d="M634.02,1447.21c242.04-175.85,275.99-134.02,497.86-334.72,221.88-200.7,164.18-264.48,386.06-465.18,221.88-200.7,279.57-136.92,501.45-337.63s179.85-243.27,383.39-462.55c27.47-29.6-13.75-8.57-53.85-3.71-40.09,4.86-29.73,90.24-69.83,95.1-40.09,4.86-50.45-80.51-90.55-75.65s-17.06,63.46-49.73,87.2c-256.19,186.13-296.82,133.72-540.98,335.37-244.16,201.66-189.4,267.97-433.56,469.62-244.16,201.66-298.93,135.35-543.09,337.01s-213.99,233.63-429.42,465.72c-42.62,45.92,34.86,7.74,97.24,1.92,62.38-5.82,54.39-91.45,116.76-97.27s71.79,81.47,133.98,73.85c54.83-6.71,43.57-52.29,94.26-89.11Z"/><path class="cls-5" d="M534.19,1222.44c211.63-143.47,246.94-96.99,441.93-262.37,195-165.38,139.37-230.97,334.37-396.35,195-165.38,250.63-99.79,445.63-265.18s153.25-210.03,331.33-393.51c24.53-25.27-5.28-12.28-40.49-11.53s-33.36,86.74-68.58,87.49-37.06-85.22-72.28-84.47-16.22,60.33-45.38,80.1c-228.57,154.96-267.95,100.99-485.24,271.42-217.29,170.42-164.21,238.09-381.5,408.52-217.29,170.43-270.36,102.76-487.65,273.18-217.29,170.43-184.85,206.48-377.19,404.63-40.25,41.47,30.96,7.03,88.46,1.23,57.5-5.8,48.87-91.37,106.37-97.17,57.5-5.8,69.39,83.11,126.4,73.6,50.63-8.44,35.97-57.17,83.81-89.61Z"/><path class="cls-2" d="M410.6,1239.55C1255.43,622.07,1325.52,684.36,2029.81-89.58c89.82-98.7-167.42-63.53-275.17,15.22C890.02,557.58,801.06,464.11,46.17,1223.77c-119.85,120.6,219.75,121.52,364.43,15.78Z"/><path class="cls-3" d="M427.63,1543.74c261.23-201.09,298.55-156.62,541.87-379.06,243.31-222.43,185.28-285.91,428.6-508.34,243.31-222.43,301.34-158.96,544.65-381.39,243.31-222.43,199.04-267.64,426.48-506.27,28.56-29.96-18.98-2.76-59.28,6.68-40.3,9.44-20.69,93.17-61,102.61s-59.92-74.29-100.22-64.85-11.77,69.57-44.58,94.82c-276.28,212.67-319.61,159.15-585.12,385.12-265.51,225.97-209.77,291.46-475.28,517.43-265.51,225.97-321.25,160.48-586.76,386.45-265.51,225.97-231.48,261.97-472.03,514.35-44.04,46.21,40.12-.54,102.62-13.52,62.5-12.98,45.02-97.18,107.52-110.16s83.41,74.38,145.02,57.65c55.89-15.18,36.92-62.58,87.51-101.52Z"/><path class="cls-4" d="M225.84,1215.68c299.7-207.32,314.13-188.64,590.41-426.27,276.28-237.63,235.85-284.64,512.13-522.27s344.69-165.87,595.28-430.45c39.66-41.87-76.36,15.93-133.67,22.37s-64.24-55.17-121.55-48.73-46.1,36.37-93.53,69.18c-302.58,209.31-323.32,181.58-609.53,412.77-286.21,231.19-247.25,279.42-533.45,510.61-286.21,231.19-361.4,149.83-614.4,416.95-46.24,48.82,89.75-9.68,156.98-9.68s65.37,57.57,132.47,61.93c61.12,3.98,63.56-18.17,118.86-56.43Z"/><path class="cls-11" d="M-46.02,1251.73c308.03-210.09,326.32-185.55,615.61-420.77,289.3-235.22,250.18-283.32,539.48-518.54,289.3-235.22,355.87-161.28,620.03-424.42,40.16-40.01-76.6,12.38-133.19,15.79s-60.31-58.48-116.9-55.08-47.02,31.42-93.85,63.36c-277.06,188.97-296.72,162.67-556.36,374.95-259.63,212.28-220.39,260.28-480.02,472.56C89.14,971.87,25.6,901.51-212,1138.19c-23.57,23.47,67,16.4,93.93,35.93,26.93,19.53-9.59,59.68,12.39,84.65,15.65,17.77,32.17,11.71,59.65-7.03Z"/><path class="cls-9" d="M-13.98,1089.04c206.82-140.65,231.19-107.87,425.41-265.45,194.23-157.58,155.17-205.73,349.39-363.31,194.23-157.58,233.29-109.44,427.52-267.02s170.42-183.96,346.97-361.12c30.29-30.39-24.5-3.48-67.07,1.91s-34.77,66.9-77.34,72.29-50.36-56.12-92.93-50.72-28.33,43.04-63.81,67.17c-183.75,124.96-209.13,90.94-381.21,231.52-172.09,140.59-132.86,188.6-304.95,329.18-172.09,140.59-211.31,92.57-383.4,233.16s-145.75,169.66-302.6,327.06c-16.58,16.64-16.85,16.68,3.58,28.28,20.43,11.6,51.05-42.3,71.48-30.7,20.43,11.61-11.91,60.68,6.82,74.87,10.58,8.02,22.72-13.92,42.15-27.13Z"/><path class="cls-7" d="M-55.96,857.08c139.05-95.32,176.11-49.53,298.29-165.7,122.17-116.17,62.92-178.49,185.09-294.66,122.18-116.17,181.43-53.84,303.61-170.01,122.18-116.17,76.44-157.9,180.99-290.16,15.12-19.13,30.52-22.67,8.56-33.29-21.95-10.63-59.42,66.78-81.37,56.16s15.51-88.04-6.44-98.66-18.21,39.13-38.33,52.92C665.01,2.39,624.98-48.28,508.72,57.09c-116.26,105.37-58.5,169.09-174.76,274.46-116.26,105.38-174.02,41.65-290.28,147.03s-72.61,146.18-169.91,269.28c-16.59,20.99-52.11,20.53-36.08,41.95s84.88-30.13,100.91-8.72c16.04,21.42-50.85,54.08-43.83,79.9,3.49,12.84,27.19,11.21,49.26-3.92Z"/><path class="cls-6" d="M24.33,375.86c53.98-46.18,134.85-57.59,188.83-103.77,53.98-46.18,79.36-125.79,133.34-171.97S488.12,34.96,542.1-11.22c-23.37-10.37-79.79-11.48-121.38-20.4-29.34-6.29-57.86-54.48-96.3-55.8-31.13-1.07-63.5,43.9-100.61,48.17-36.77,4.23-102.26-32.33-165.6-16.36C9.53-43.34-26.64,15.1-75.24,41.57c-45.96,25.02-116.64,24.88-150.61,68.08-17.86,22.71,4.87,69.83-6.12,95.06-11.9,27.31-61.5,44.48-63.85,71.03-2.69,30.34,42.96,51.01,54.93,74.92,16.16,32.29,20.4,85.32,59.06,95.78,31.21,8.45,70.22-33.5,110.79-40.64,32.85-5.78,59.21-13.24,95.39-29.95Z"/><path class="cls-10" d="M-41.86,684.5c119.04-65.78,125.69-56.54,225.85-148.54,100.16-92,70.4-124.4,170.56-216.4,100.17-92,129.93-59.6,230.1-151.6,100.17-92,86.92-103.91,167.76-213.28,15.55-21.03,14.75-20.97-3.74-39.47s-49.61,12.62-68.1-5.88c-18.5-18.5,12.62-49.61-5.88-68.11s-19.01-14.83-41.91-2.18c-115.8,63.99-126.28,48.69-227.81,133.51-101.53,84.82-73.32,118.59-174.85,203.42C128.59,260.8,100.38,227.03-1.15,311.86s-92.63,93.22-171.27,199.62c-19.29,26.1-15.23,26.05,4.63,51.72,19.86,25.67,54.66-1.26,74.52,24.41,19.86,25.67-10.3,43.05,1.96,73.11,10.32,25.31,21.05,39.48,49.46,23.78Z"/><path class="cls-8" d="M-61.36,1034.29c238.49-164.71,257.8-139.64,477.81-328.33,220.01-188.68,179.64-235.75,399.65-424.43s296.03-112.97,483.81-333.75c36.9-43.38-82.18,7.74-139.04,4.62-56.87-3.13-53.46-65.03-110.33-68.16s-50.96,17.84-97.82,50.21c-216.05,149.22-232.78,128.15-427.09,304.75-194.31,176.6-152.61,222.48-346.93,399.08C-15.62,814.89-84.28,748.45-254.4,948.46c-22.47,26.42,68.38,7.43,99.55,22.64,31.17,15.21,2.56,63.76,30.97,83.67,20.71,14.51,33.98-.77,62.52-20.48Z"/><path class="cls-12" d="M-65.87,218.57c67.11-50.89,210.26,1.4,277.37-49.49,67.11-50.89,46.03-193.59,113.14-244.48-15.75-11.46,34.32-44.98,3-57.62-21.95-8.86-81.94,106.07-111.79,101.28-27.13-4.36-52.57-136.71-88.86-134.55-28.19,1.68-30.29,130.74-63.85,144.95C21.71-3.81-81.12-84.01-106.8-58.98c-45.04,43.89,35.33,162.28,31.14,171.03-7.93,16.59-137.5-6.44-142.69,14.7-4.86,19.8,116.42,33.77,123.94,54.14,9.72,26.31-56.05,123.04-34.22,132.86,33.5,15.06,58.79-95.17,62.76-95.19Z"/></svg>